ISO-10303-21;
HEADER;
/*Generated by software containing ST-Developer
 * from STEP Tools, Inc. (www.steptools.com) 
 */
/*OPTION: using custom renumber hook */
/*description */
/*implementation_level */
FILE_DESCRIPTION(('STEP AP242 Edition 2','STEP AP242 Edition 2''CAx-IF Rec.Pracs.---Representation and Presentation of Product Manufa
cturing Information (PMI)---4.0---2014-10-13','STEP AP242 Edition 2''CAx-IF Rec.Pracs.---Representation and Presentation of Product Manufa
cturing Information (PMI)---4.0---2014-10-13''CAx-IF Rec.Pracs.---3D Tessellated Geometry---0.4---2014-09-14','STEP AP242 Edition 2''CAx-IF Rec.Pracs.---Representation and Presentation of Product Manufa
cturing Information (PMI)---4.0---2014-10-13''CAx-IF Rec.Pracs.---3D Tessellated Geometry---0.4---2014-09-14''2;1','STEP AP242 Edition 2''CAx-IF Rec.Pracs.---Representation and Presentation of Product Manufa
cturing Information (PMI)---4.0---2014-10-13''CAx-IF Rec.Pracs.---3D Tessellated Geometry---0.4---2014-09-14''2;1''CAx-IF Rec.Pracs.---User Defined Attributes---1.5---2016-08-15'),'2;1');
/*name */
/*time_stamp */
/*author */
/*organization */
/*preprocessor_version */
/*originating_system */
/*authorisation */
FILE_NAME('/vol/tmp/translate-13924336357618078578/Part Studio 1 - bottom.step','2026-03-23T23:43:27',(''),(''),'ST-DEVELOPER v20','ONSHAPE BY PTC INC, 1.212','  ');
FILE_SCHEMA(('AP242_MANAGED_MODEL_BASED_3D_ENGINEERING_MIM_LF { 1 0 10303 442 3 1 4 }'));
ENDSEC;
DATA;
#10=SHAPE_REPRESENTATION_RELATIONSHIP('','',#671,#11);
#11=ADVANCED_BREP_SHAPE_REPRESENTATION('',(#669),#1105);
#12=CYLINDRICAL_SURFACE('',#689,0.005);
#13=CYLINDRICAL_SURFACE('',#692,0.005);
#14=CYLINDRICAL_SURFACE('',#695,0.005);
#15=CYLINDRICAL_SURFACE('',#698,0.005);
#16=CYLINDRICAL_SURFACE('',#717,0.00195);
#17=CYLINDRICAL_SURFACE('',#720,0.00195);
#18=CYLINDRICAL_SURFACE('',#723,0.0006);
#19=CYLINDRICAL_SURFACE('',#726,0.0006);
#20=CYLINDRICAL_SURFACE('',#729,0.0006);
#21=CYLINDRICAL_SURFACE('',#732,0.0006);
#22=CIRCLE('',#683,0.00195);
#23=CIRCLE('',#684,0.00195);
#24=CIRCLE('',#685,0.005);
#25=CIRCLE('',#686,0.005);
#26=CIRCLE('',#687,0.005);
#27=CIRCLE('',#688,0.005);
#28=CIRCLE('',#690,0.005);
#29=CIRCLE('',#693,0.005);
#30=CIRCLE('',#696,0.005);
#31=CIRCLE('',#699,0.005);
#32=CIRCLE('',#702,0.0006);
#33=CIRCLE('',#703,0.0006);
#34=CIRCLE('',#704,0.0006);
#35=CIRCLE('',#705,0.0006);
#36=CIRCLE('',#718,0.00195);
#37=CIRCLE('',#721,0.00195);
#38=CIRCLE('',#724,0.0006);
#39=CIRCLE('',#727,0.0006);
#40=CIRCLE('',#730,0.0006);
#41=CIRCLE('',#733,0.0006);
#42=ORIENTED_EDGE('',*,*,#202,.T.);
#43=ORIENTED_EDGE('',*,*,#203,.T.);
#44=ORIENTED_EDGE('',*,*,#204,.T.);
#45=ORIENTED_EDGE('',*,*,#205,.F.);
#46=ORIENTED_EDGE('',*,*,#206,.T.);
#47=ORIENTED_EDGE('',*,*,#207,.T.);
#48=ORIENTED_EDGE('',*,*,#208,.F.);
#49=ORIENTED_EDGE('',*,*,#209,.F.);
#50=ORIENTED_EDGE('',*,*,#210,.T.);
#51=ORIENTED_EDGE('',*,*,#211,.F.);
#52=ORIENTED_EDGE('',*,*,#212,.F.);
#53=ORIENTED_EDGE('',*,*,#213,.T.);
#54=ORIENTED_EDGE('',*,*,#214,.T.);
#55=ORIENTED_EDGE('',*,*,#215,.F.);
#56=ORIENTED_EDGE('',*,*,#216,.F.);
#57=ORIENTED_EDGE('',*,*,#211,.T.);
#58=ORIENTED_EDGE('',*,*,#217,.T.);
#59=ORIENTED_EDGE('',*,*,#218,.F.);
#60=ORIENTED_EDGE('',*,*,#219,.F.);
#61=ORIENTED_EDGE('',*,*,#215,.T.);
#62=ORIENTED_EDGE('',*,*,#220,.T.);
#63=ORIENTED_EDGE('',*,*,#221,.F.);
#64=ORIENTED_EDGE('',*,*,#222,.F.);
#65=ORIENTED_EDGE('',*,*,#218,.T.);
#66=ORIENTED_EDGE('',*,*,#223,.T.);
#67=ORIENTED_EDGE('',*,*,#224,.F.);
#68=ORIENTED_EDGE('',*,*,#225,.F.);
#69=ORIENTED_EDGE('',*,*,#221,.T.);
#70=ORIENTED_EDGE('',*,*,#226,.T.);
#71=ORIENTED_EDGE('',*,*,#227,.F.);
#72=ORIENTED_EDGE('',*,*,#228,.F.);
#73=ORIENTED_EDGE('',*,*,#224,.T.);
#74=ORIENTED_EDGE('',*,*,#229,.T.);
#75=ORIENTED_EDGE('',*,*,#230,.F.);
#76=ORIENTED_EDGE('',*,*,#231,.F.);
#77=ORIENTED_EDGE('',*,*,#227,.T.);
#78=ORIENTED_EDGE('',*,*,#232,.F.);
#79=ORIENTED_EDGE('',*,*,#233,.T.);
#80=ORIENTED_EDGE('',*,*,#234,.F.);
#81=ORIENTED_EDGE('',*,*,#235,.F.);
#82=ORIENTED_EDGE('',*,*,#236,.F.);
#83=ORIENTED_EDGE('',*,*,#230,.T.);
#84=ORIENTED_EDGE('',*,*,#237,.T.);
#85=ORIENTED_EDGE('',*,*,#213,.F.);
#86=ORIENTED_EDGE('',*,*,#238,.F.);
#87=ORIENTED_EDGE('',*,*,#239,.F.);
#88=ORIENTED_EDGE('',*,*,#240,.F.);
#89=ORIENTED_EDGE('',*,*,#241,.F.);
#90=ORIENTED_EDGE('',*,*,#242,.F.);
#91=ORIENTED_EDGE('',*,*,#243,.F.);
#92=ORIENTED_EDGE('',*,*,#210,.F.);
#93=ORIENTED_EDGE('',*,*,#237,.F.);
#94=ORIENTED_EDGE('',*,*,#229,.F.);
#95=ORIENTED_EDGE('',*,*,#226,.F.);
#96=ORIENTED_EDGE('',*,*,#223,.F.);
#97=ORIENTED_EDGE('',*,*,#220,.F.);
#98=ORIENTED_EDGE('',*,*,#217,.F.);
#99=ORIENTED_EDGE('',*,*,#214,.F.);
#100=ORIENTED_EDGE('',*,*,#244,.F.);
#101=ORIENTED_EDGE('',*,*,#243,.T.);
#102=ORIENTED_EDGE('',*,*,#244,.T.);
#103=ORIENTED_EDGE('',*,*,#245,.F.);
#104=ORIENTED_EDGE('',*,*,#242,.T.);
#105=ORIENTED_EDGE('',*,*,#245,.T.);
#106=ORIENTED_EDGE('',*,*,#246,.F.);
#107=ORIENTED_EDGE('',*,*,#241,.T.);
#108=ORIENTED_EDGE('',*,*,#246,.T.);
#109=ORIENTED_EDGE('',*,*,#247,.F.);
#110=ORIENTED_EDGE('',*,*,#240,.T.);
#111=ORIENTED_EDGE('',*,*,#247,.T.);
#112=ORIENTED_EDGE('',*,*,#248,.F.);
#113=ORIENTED_EDGE('',*,*,#249,.F.);
#114=ORIENTED_EDGE('',*,*,#250,.F.);
#115=ORIENTED_EDGE('',*,*,#251,.F.);
#116=ORIENTED_EDGE('',*,*,#252,.F.);
#117=ORIENTED_EDGE('',*,*,#202,.F.);
#118=ORIENTED_EDGE('',*,*,#253,.F.);
#119=ORIENTED_EDGE('',*,*,#254,.F.);
#120=ORIENTED_EDGE('',*,*,#255,.F.);
#121=ORIENTED_EDGE('',*,*,#256,.F.);
#122=ORIENTED_EDGE('',*,*,#257,.F.);
#123=ORIENTED_EDGE('',*,*,#258,.F.);
#124=ORIENTED_EDGE('',*,*,#259,.F.);
#125=ORIENTED_EDGE('',*,*,#206,.F.);
#126=ORIENTED_EDGE('',*,*,#260,.T.);
#127=ORIENTED_EDGE('',*,*,#232,.T.);
#128=ORIENTED_EDGE('',*,*,#212,.T.);
#129=ORIENTED_EDGE('',*,*,#216,.T.);
#130=ORIENTED_EDGE('',*,*,#219,.T.);
#131=ORIENTED_EDGE('',*,*,#222,.T.);
#132=ORIENTED_EDGE('',*,*,#225,.T.);
#133=ORIENTED_EDGE('',*,*,#228,.T.);
#134=ORIENTED_EDGE('',*,*,#231,.T.);
#135=ORIENTED_EDGE('',*,*,#236,.T.);
#136=ORIENTED_EDGE('',*,*,#261,.T.);
#137=ORIENTED_EDGE('',*,*,#262,.T.);
#138=ORIENTED_EDGE('',*,*,#263,.T.);
#139=ORIENTED_EDGE('',*,*,#264,.T.);
#140=ORIENTED_EDGE('',*,*,#265,.T.);
#141=ORIENTED_EDGE('',*,*,#266,.T.);
#142=ORIENTED_EDGE('',*,*,#208,.T.);
#143=ORIENTED_EDGE('',*,*,#267,.T.);
#144=ORIENTED_EDGE('',*,*,#262,.F.);
#145=ORIENTED_EDGE('',*,*,#268,.F.);
#146=ORIENTED_EDGE('',*,*,#257,.T.);
#147=ORIENTED_EDGE('',*,*,#269,.T.);
#148=ORIENTED_EDGE('',*,*,#263,.F.);
#149=ORIENTED_EDGE('',*,*,#269,.F.);
#150=ORIENTED_EDGE('',*,*,#256,.T.);
#151=ORIENTED_EDGE('',*,*,#270,.T.);
#152=ORIENTED_EDGE('',*,*,#264,.F.);
#153=ORIENTED_EDGE('',*,*,#270,.F.);
#154=ORIENTED_EDGE('',*,*,#255,.T.);
#155=ORIENTED_EDGE('',*,*,#271,.T.);
#156=ORIENTED_EDGE('',*,*,#265,.F.);
#157=ORIENTED_EDGE('',*,*,#271,.F.);
#158=ORIENTED_EDGE('',*,*,#254,.T.);
#159=ORIENTED_EDGE('',*,*,#272,.T.);
#160=ORIENTED_EDGE('',*,*,#266,.F.);
#161=ORIENTED_EDGE('',*,*,#272,.F.);
#162=ORIENTED_EDGE('',*,*,#253,.T.);
#163=ORIENTED_EDGE('',*,*,#209,.T.);
#164=ORIENTED_EDGE('',*,*,#267,.F.);
#165=ORIENTED_EDGE('',*,*,#207,.F.);
#166=ORIENTED_EDGE('',*,*,#259,.T.);
#167=ORIENTED_EDGE('',*,*,#273,.T.);
#168=ORIENTED_EDGE('',*,*,#261,.F.);
#169=ORIENTED_EDGE('',*,*,#273,.F.);
#170=ORIENTED_EDGE('',*,*,#258,.T.);
#171=ORIENTED_EDGE('',*,*,#268,.T.);
#172=ORIENTED_EDGE('',*,*,#252,.T.);
#173=ORIENTED_EDGE('',*,*,#235,.T.);
#174=ORIENTED_EDGE('',*,*,#274,.T.);
#175=ORIENTED_EDGE('',*,*,#203,.F.);
#176=ORIENTED_EDGE('',*,*,#205,.T.);
#177=ORIENTED_EDGE('',*,*,#275,.F.);
#178=ORIENTED_EDGE('',*,*,#233,.F.);
#179=ORIENTED_EDGE('',*,*,#260,.F.);
#180=ORIENTED_EDGE('',*,*,#274,.F.);
#181=ORIENTED_EDGE('',*,*,#234,.T.);
#182=ORIENTED_EDGE('',*,*,#275,.T.);
#183=ORIENTED_EDGE('',*,*,#204,.F.);
#184=ORIENTED_EDGE('',*,*,#239,.T.);
#185=ORIENTED_EDGE('',*,*,#276,.F.);
#186=ORIENTED_EDGE('',*,*,#276,.T.);
#187=ORIENTED_EDGE('',*,*,#238,.T.);
#188=ORIENTED_EDGE('',*,*,#277,.F.);
#189=ORIENTED_EDGE('',*,*,#277,.T.);
#190=ORIENTED_EDGE('',*,*,#278,.F.);
#191=ORIENTED_EDGE('',*,*,#251,.T.);
#192=ORIENTED_EDGE('',*,*,#278,.T.);
#193=ORIENTED_EDGE('',*,*,#279,.F.);
#194=ORIENTED_EDGE('',*,*,#250,.T.);
#195=ORIENTED_EDGE('',*,*,#279,.T.);
#196=ORIENTED_EDGE('',*,*,#280,.F.);
#197=ORIENTED_EDGE('',*,*,#249,.T.);
#198=ORIENTED_EDGE('',*,*,#280,.T.);
#199=ORIENTED_EDGE('',*,*,#281,.F.);
#200=ORIENTED_EDGE('',*,*,#248,.T.);
#201=ORIENTED_EDGE('',*,*,#281,.T.);
#202=EDGE_CURVE('',#282,#283,#342,.T.);
#203=EDGE_CURVE('',#283,#284,#343,.T.);
#204=EDGE_CURVE('',#284,#285,#344,.T.);
#205=EDGE_CURVE('',#286,#285,#345,.T.);
#206=EDGE_CURVE('',#286,#287,#346,.T.);
#207=EDGE_CURVE('',#287,#288,#347,.T.);
#208=EDGE_CURVE('',#289,#288,#348,.T.);
#209=EDGE_CURVE('',#282,#289,#349,.T.);
#210=EDGE_CURVE('',#290,#291,#350,.T.);
#211=EDGE_CURVE('',#292,#291,#351,.T.);
#212=EDGE_CURVE('',#293,#292,#352,.T.);
#213=EDGE_CURVE('',#293,#290,#353,.T.);
#214=EDGE_CURVE('',#291,#294,#354,.T.);
#215=EDGE_CURVE('',#295,#294,#355,.T.);
#216=EDGE_CURVE('',#292,#295,#356,.T.);
#217=EDGE_CURVE('',#294,#296,#357,.T.);
#218=EDGE_CURVE('',#297,#296,#358,.T.);
#219=EDGE_CURVE('',#295,#297,#359,.T.);
#220=EDGE_CURVE('',#296,#298,#360,.T.);
#221=EDGE_CURVE('',#299,#298,#361,.T.);
#222=EDGE_CURVE('',#297,#299,#362,.T.);
#223=EDGE_CURVE('',#298,#300,#363,.T.);
#224=EDGE_CURVE('',#301,#300,#364,.T.);
#225=EDGE_CURVE('',#299,#301,#365,.T.);
#226=EDGE_CURVE('',#300,#302,#366,.T.);
#227=EDGE_CURVE('',#303,#302,#367,.T.);
#228=EDGE_CURVE('',#301,#303,#368,.T.);
#229=EDGE_CURVE('',#302,#304,#369,.T.);
#230=EDGE_CURVE('',#305,#304,#370,.T.);
#231=EDGE_CURVE('',#303,#305,#371,.T.);
#232=EDGE_CURVE('',#306,#293,#372,.T.);
#233=EDGE_CURVE('',#306,#307,#373,.T.);
#234=EDGE_CURVE('',#308,#307,#374,.T.);
#235=EDGE_CURVE('',#309,#308,#375,.T.);
#236=EDGE_CURVE('',#305,#309,#376,.T.);
#237=EDGE_CURVE('',#304,#290,#377,.T.);
#238=EDGE_CURVE('',#310,#310,#22,.T.);
#239=EDGE_CURVE('',#311,#311,#23,.T.);
#240=EDGE_CURVE('',#312,#312,#24,.T.);
#241=EDGE_CURVE('',#313,#313,#25,.T.);
#242=EDGE_CURVE('',#314,#314,#26,.T.);
#243=EDGE_CURVE('',#315,#315,#27,.T.);
#244=EDGE_CURVE('',#316,#316,#28,.T.);
#245=EDGE_CURVE('',#317,#317,#29,.T.);
#246=EDGE_CURVE('',#318,#318,#30,.T.);
#247=EDGE_CURVE('',#319,#319,#31,.T.);
#248=EDGE_CURVE('',#320,#320,#32,.T.);
#249=EDGE_CURVE('',#321,#321,#33,.T.);
#250=EDGE_CURVE('',#322,#322,#34,.T.);
#251=EDGE_CURVE('',#323,#323,#35,.T.);
#252=EDGE_CURVE('',#283,#309,#378,.T.);
#253=EDGE_CURVE('',#324,#282,#379,.T.);
#254=EDGE_CURVE('',#325,#324,#380,.T.);
#255=EDGE_CURVE('',#326,#325,#381,.T.);
#256=EDGE_CURVE('',#327,#326,#382,.T.);
#257=EDGE_CURVE('',#328,#327,#383,.T.);
#258=EDGE_CURVE('',#329,#328,#384,.T.);
#259=EDGE_CURVE('',#287,#329,#385,.T.);
#260=EDGE_CURVE('',#286,#306,#386,.T.);
#261=EDGE_CURVE('',#330,#331,#387,.T.);
#262=EDGE_CURVE('',#331,#332,#388,.T.);
#263=EDGE_CURVE('',#332,#333,#389,.T.);
#264=EDGE_CURVE('',#333,#334,#390,.T.);
#265=EDGE_CURVE('',#334,#335,#391,.T.);
#266=EDGE_CURVE('',#335,#289,#392,.T.);
#267=EDGE_CURVE('',#288,#330,#393,.T.);
#268=EDGE_CURVE('',#328,#331,#394,.T.);
#269=EDGE_CURVE('',#327,#332,#395,.T.);
#270=EDGE_CURVE('',#326,#333,#396,.T.);
#271=EDGE_CURVE('',#325,#334,#397,.T.);
#272=EDGE_CURVE('',#324,#335,#398,.T.);
#273=EDGE_CURVE('',#329,#330,#399,.T.);
#274=EDGE_CURVE('',#308,#284,#400,.T.);
#275=EDGE_CURVE('',#307,#285,#401,.T.);
#276=EDGE_CURVE('',#336,#336,#36,.T.);
#277=EDGE_CURVE('',#337,#337,#37,.T.);
#278=EDGE_CURVE('',#338,#338,#38,.T.);
#279=EDGE_CURVE('',#339,#339,#39,.T.);
#280=EDGE_CURVE('',#340,#340,#40,.T.);
#281=EDGE_CURVE('',#341,#341,#41,.T.);
#282=VERTEX_POINT('',#924);
#283=VERTEX_POINT('',#925);
#284=VERTEX_POINT('',#927);
#285=VERTEX_POINT('',#929);
#286=VERTEX_POINT('',#931);
#287=VERTEX_POINT('',#933);
#288=VERTEX_POINT('',#935);
#289=VERTEX_POINT('',#937);
#290=VERTEX_POINT('',#941);
#291=VERTEX_POINT('',#942);
#292=VERTEX_POINT('',#944);
#293=VERTEX_POINT('',#946);
#294=VERTEX_POINT('',#950);
#295=VERTEX_POINT('',#952);
#296=VERTEX_POINT('',#956);
#297=VERTEX_POINT('',#958);
#298=VERTEX_POINT('',#962);
#299=VERTEX_POINT('',#964);
#300=VERTEX_POINT('',#968);
#301=VERTEX_POINT('',#970);
#302=VERTEX_POINT('',#974);
#303=VERTEX_POINT('',#976);
#304=VERTEX_POINT('',#980);
#305=VERTEX_POINT('',#982);
#306=VERTEX_POINT('',#986);
#307=VERTEX_POINT('',#988);
#308=VERTEX_POINT('',#990);
#309=VERTEX_POINT('',#992);
#310=VERTEX_POINT('',#997);
#311=VERTEX_POINT('',#999);
#312=VERTEX_POINT('',#1001);
#313=VERTEX_POINT('',#1003);
#314=VERTEX_POINT('',#1005);
#315=VERTEX_POINT('',#1007);
#316=VERTEX_POINT('',#1010);
#317=VERTEX_POINT('',#1014);
#318=VERTEX_POINT('',#1018);
#319=VERTEX_POINT('',#1022);
#320=VERTEX_POINT('',#1026);
#321=VERTEX_POINT('',#1028);
#322=VERTEX_POINT('',#1030);
#323=VERTEX_POINT('',#1032);
#324=VERTEX_POINT('',#1035);
#325=VERTEX_POINT('',#1037);
#326=VERTEX_POINT('',#1039);
#327=VERTEX_POINT('',#1041);
#328=VERTEX_POINT('',#1043);
#329=VERTEX_POINT('',#1045);
#330=VERTEX_POINT('',#1050);
#331=VERTEX_POINT('',#1051);
#332=VERTEX_POINT('',#1053);
#333=VERTEX_POINT('',#1055);
#334=VERTEX_POINT('',#1057);
#335=VERTEX_POINT('',#1059);
#336=VERTEX_POINT('',#1082);
#337=VERTEX_POINT('',#1086);
#338=VERTEX_POINT('',#1090);
#339=VERTEX_POINT('',#1094);
#340=VERTEX_POINT('',#1098);
#341=VERTEX_POINT('',#1102);
#342=LINE('',#923,#402);
#343=LINE('',#926,#403);
#344=LINE('',#928,#404);
#345=LINE('',#930,#405);
#346=LINE('',#932,#406);
#347=LINE('',#934,#407);
#348=LINE('',#936,#408);
#349=LINE('',#938,#409);
#350=LINE('',#940,#410);
#351=LINE('',#943,#411);
#352=LINE('',#945,#412);
#353=LINE('',#947,#413);
#354=LINE('',#949,#414);
#355=LINE('',#951,#415);
#356=LINE('',#953,#416);
#357=LINE('',#955,#417);
#358=LINE('',#957,#418);
#359=LINE('',#959,#419);
#360=LINE('',#961,#420);
#361=LINE('',#963,#421);
#362=LINE('',#965,#422);
#363=LINE('',#967,#423);
#364=LINE('',#969,#424);
#365=LINE('',#971,#425);
#366=LINE('',#973,#426);
#367=LINE('',#975,#427);
#368=LINE('',#977,#428);
#369=LINE('',#979,#429);
#370=LINE('',#981,#430);
#371=LINE('',#983,#431);
#372=LINE('',#985,#432);
#373=LINE('',#987,#433);
#374=LINE('',#989,#434);
#375=LINE('',#991,#435);
#376=LINE('',#993,#436);
#377=LINE('',#994,#437);
#378=LINE('',#1033,#438);
#379=LINE('',#1034,#439);
#380=LINE('',#1036,#440);
#381=LINE('',#1038,#441);
#382=LINE('',#1040,#442);
#383=LINE('',#1042,#443);
#384=LINE('',#1044,#444);
#385=LINE('',#1046,#445);
#386=LINE('',#1047,#446);
#387=LINE('',#1049,#447);
#388=LINE('',#1052,#448);
#389=LINE('',#1054,#449);
#390=LINE('',#1056,#450);
#391=LINE('',#1058,#451);
#392=LINE('',#1060,#452);
#393=LINE('',#1061,#453);
#394=LINE('',#1063,#454);
#395=LINE('',#1064,#455);
#396=LINE('',#1066,#456);
#397=LINE('',#1068,#457);
#398=LINE('',#1070,#458);
#399=LINE('',#1073,#459);
#400=LINE('',#1076,#460);
#401=LINE('',#1078,#461);
#402=VECTOR('',#739,1.);
#403=VECTOR('',#740,1.);
#404=VECTOR('',#741,1.);
#405=VECTOR('',#742,1.);
#406=VECTOR('',#743,1.);
#407=VECTOR('',#744,1.);
#408=VECTOR('',#745,1.);
#409=VECTOR('',#746,1.);
#410=VECTOR('',#749,1.);
#411=VECTOR('',#750,1.);
#412=VECTOR('',#751,1.);
#413=VECTOR('',#752,1.);
#414=VECTOR('',#755,1.);
#415=VECTOR('',#756,1.);
#416=VECTOR('',#757,1.);
#417=VECTOR('',#760,1.);
#418=VECTOR('',#761,1.);
#419=VECTOR('',#762,1.);
#420=VECTOR('',#765,1.);
#421=VECTOR('',#766,1.);
#422=VECTOR('',#767,1.);
#423=VECTOR('',#770,1.);
#424=VECTOR('',#771,1.);
#425=VECTOR('',#772,1.);
#426=VECTOR('',#775,1.);
#427=VECTOR('',#776,1.);
#428=VECTOR('',#777,1.);
#429=VECTOR('',#780,1.);
#430=VECTOR('',#781,1.);
#431=VECTOR('',#782,1.);
#432=VECTOR('',#785,1.);
#433=VECTOR('',#786,1.);
#434=VECTOR('',#787,1.);
#435=VECTOR('',#788,1.);
#436=VECTOR('',#789,1.);
#437=VECTOR('',#790,1.);
#438=VECTOR('',#839,1.);
#439=VECTOR('',#840,1.);
#440=VECTOR('',#841,1.);
#441=VECTOR('',#842,1.);
#442=VECTOR('',#843,1.);
#443=VECTOR('',#844,1.);
#444=VECTOR('',#845,1.);
#445=VECTOR('',#846,1.);
#446=VECTOR('',#847,1.);
#447=VECTOR('',#850,1.);
#448=VECTOR('',#851,1.);
#449=VECTOR('',#852,1.);
#450=VECTOR('',#853,1.);
#451=VECTOR('',#854,1.);
#452=VECTOR('',#855,1.);
#453=VECTOR('',#856,1.);
#454=VECTOR('',#859,1.);
#455=VECTOR('',#860,1.);
#456=VECTOR('',#863,1.);
#457=VECTOR('',#866,1.);
#458=VECTOR('',#869,1.);
#459=VECTOR('',#874,1.);
#460=VECTOR('',#879,1.);
#461=VECTOR('',#882,1.);
#462=EDGE_LOOP('',(#42,#43,#44,#45,#46,#47,#48,#49));
#463=EDGE_LOOP('',(#50,#51,#52,#53));
#464=EDGE_LOOP('',(#54,#55,#56,#57));
#465=EDGE_LOOP('',(#58,#59,#60,#61));
#466=EDGE_LOOP('',(#62,#63,#64,#65));
#467=EDGE_LOOP('',(#66,#67,#68,#69));
#468=EDGE_LOOP('',(#70,#71,#72,#73));
#469=EDGE_LOOP('',(#74,#75,#76,#77));
#470=EDGE_LOOP('',(#78,#79,#80,#81,#82,#83,#84,#85));
#471=EDGE_LOOP('',(#86));
#472=EDGE_LOOP('',(#87));
#473=EDGE_LOOP('',(#88));
#474=EDGE_LOOP('',(#89));
#475=EDGE_LOOP('',(#90));
#476=EDGE_LOOP('',(#91));
#477=EDGE_LOOP('',(#92,#93,#94,#95,#96,#97,#98,#99));
#478=EDGE_LOOP('',(#100));
#479=EDGE_LOOP('',(#101));
#480=EDGE_LOOP('',(#102));
#481=EDGE_LOOP('',(#103));
#482=EDGE_LOOP('',(#104));
#483=EDGE_LOOP('',(#105));
#484=EDGE_LOOP('',(#106));
#485=EDGE_LOOP('',(#107));
#486=EDGE_LOOP('',(#108));
#487=EDGE_LOOP('',(#109));
#488=EDGE_LOOP('',(#110));
#489=EDGE_LOOP('',(#111));
#490=EDGE_LOOP('',(#112));
#491=EDGE_LOOP('',(#113));
#492=EDGE_LOOP('',(#114));
#493=EDGE_LOOP('',(#115));
#494=EDGE_LOOP('',(#116,#117,#118,#119,#120,#121,#122,#123,#124,#125,#126,#127,#128,#129,#130,#131,#132,#133,#134,#135));
#495=EDGE_LOOP('',(#136,#137,#138,#139,#140,#141,#142,#143));
#496=EDGE_LOOP('',(#144,#145,#146,#147));
#497=EDGE_LOOP('',(#148,#149,#150,#151));
#498=EDGE_LOOP('',(#152,#153,#154,#155));
#499=EDGE_LOOP('',(#156,#157,#158,#159));
#500=EDGE_LOOP('',(#160,#161,#162,#163));
#501=EDGE_LOOP('',(#164,#165,#166,#167));
#502=EDGE_LOOP('',(#168,#169,#170,#171));
#503=EDGE_LOOP('',(#172,#173,#174,#175));
#504=EDGE_LOOP('',(#176,#177,#178,#179));
#505=EDGE_LOOP('',(#180,#181,#182,#183));
#506=EDGE_LOOP('',(#184));
#507=EDGE_LOOP('',(#185));
#508=EDGE_LOOP('',(#186));
#509=EDGE_LOOP('',(#187));
#510=EDGE_LOOP('',(#188));
#511=EDGE_LOOP('',(#189));
#512=EDGE_LOOP('',(#190));
#513=EDGE_LOOP('',(#191));
#514=EDGE_LOOP('',(#192));
#515=EDGE_LOOP('',(#193));
#516=EDGE_LOOP('',(#194));
#517=EDGE_LOOP('',(#195));
#518=EDGE_LOOP('',(#196));
#519=EDGE_LOOP('',(#197));
#520=EDGE_LOOP('',(#198));
#521=EDGE_LOOP('',(#199));
#522=EDGE_LOOP('',(#200));
#523=EDGE_LOOP('',(#201));
#524=FACE_BOUND('',#462,.T.);
#525=FACE_BOUND('',#463,.T.);
#526=FACE_BOUND('',#464,.T.);
#527=FACE_BOUND('',#465,.T.);
#528=FACE_BOUND('',#466,.T.);
#529=FACE_BOUND('',#467,.T.);
#530=FACE_BOUND('',#468,.T.);
#531=FACE_BOUND('',#469,.T.);
#532=FACE_BOUND('',#470,.T.);
#533=FACE_BOUND('',#471,.T.);
#534=FACE_BOUND('',#472,.T.);
#535=FACE_BOUND('',#473,.T.);
#536=FACE_BOUND('',#474,.T.);
#537=FACE_BOUND('',#475,.T.);
#538=FACE_BOUND('',#476,.T.);
#539=FACE_BOUND('',#477,.T.);
#540=FACE_BOUND('',#478,.T.);
#541=FACE_BOUND('',#479,.T.);
#542=FACE_BOUND('',#480,.T.);
#543=FACE_BOUND('',#481,.T.);
#544=FACE_BOUND('',#482,.T.);
#545=FACE_BOUND('',#483,.T.);
#546=FACE_BOUND('',#484,.T.);
#547=FACE_BOUND('',#485,.T.);
#548=FACE_BOUND('',#486,.T.);
#549=FACE_BOUND('',#487,.T.);
#550=FACE_BOUND('',#488,.T.);
#551=FACE_BOUND('',#489,.T.);
#552=FACE_BOUND('',#490,.T.);
#553=FACE_BOUND('',#491,.T.);
#554=FACE_BOUND('',#492,.T.);
#555=FACE_BOUND('',#493,.T.);
#556=FACE_BOUND('',#494,.T.);
#557=FACE_BOUND('',#495,.T.);
#558=FACE_BOUND('',#496,.T.);
#559=FACE_BOUND('',#497,.T.);
#560=FACE_BOUND('',#498,.T.);
#561=FACE_BOUND('',#499,.T.);
#562=FACE_BOUND('',#500,.T.);
#563=FACE_BOUND('',#501,.T.);
#564=FACE_BOUND('',#502,.T.);
#565=FACE_BOUND('',#503,.T.);
#566=FACE_BOUND('',#504,.T.);
#567=FACE_BOUND('',#505,.T.);
#568=FACE_BOUND('',#506,.T.);
#569=FACE_BOUND('',#507,.T.);
#570=FACE_BOUND('',#508,.T.);
#571=FACE_BOUND('',#509,.T.);
#572=FACE_BOUND('',#510,.T.);
#573=FACE_BOUND('',#511,.T.);
#574=FACE_BOUND('',#512,.T.);
#575=FACE_BOUND('',#513,.T.);
#576=FACE_BOUND('',#514,.T.);
#577=FACE_BOUND('',#515,.T.);
#578=FACE_BOUND('',#516,.T.);
#579=FACE_BOUND('',#517,.T.);
#580=FACE_BOUND('',#518,.T.);
#581=FACE_BOUND('',#519,.T.);
#582=FACE_BOUND('',#520,.T.);
#583=FACE_BOUND('',#521,.T.);
#584=FACE_BOUND('',#522,.T.);
#585=FACE_BOUND('',#523,.T.);
#586=PLANE('',#673);
#587=PLANE('',#674);
#588=PLANE('',#675);
#589=PLANE('',#676);
#590=PLANE('',#677);
#591=PLANE('',#678);
#592=PLANE('',#679);
#593=PLANE('',#680);
#594=PLANE('',#681);
#595=PLANE('',#682);
#596=PLANE('',#691);
#597=PLANE('',#694);
#598=PLANE('',#697);
#599=PLANE('',#700);
#600=PLANE('',#701);
#601=PLANE('',#706);
#602=PLANE('',#707);
#603=PLANE('',#708);
#604=PLANE('',#709);
#605=PLANE('',#710);
#606=PLANE('',#711);
#607=PLANE('',#712);
#608=PLANE('',#713);
#609=PLANE('',#714);
#610=PLANE('',#715);
#611=PLANE('',#716);
#612=PLANE('',#719);
#613=PLANE('',#722);
#614=PLANE('',#725);
#615=PLANE('',#728);
#616=PLANE('',#731);
#617=PLANE('',#734);
#618=ADVANCED_FACE('',(#524),#586,.T.);
#619=ADVANCED_FACE('',(#525),#587,.F.);
#620=ADVANCED_FACE('',(#526),#588,.F.);
#621=ADVANCED_FACE('',(#527),#589,.F.);
#622=ADVANCED_FACE('',(#528),#590,.F.);
#623=ADVANCED_FACE('',(#529),#591,.F.);
#624=ADVANCED_FACE('',(#530),#592,.F.);
#625=ADVANCED_FACE('',(#531),#593,.F.);
#626=ADVANCED_FACE('',(#532),#594,.F.);
#627=ADVANCED_FACE('',(#533,#534,#535,#536,#537,#538,#539),#595,.T.);
#628=ADVANCED_FACE('',(#540,#541),#12,.T.);
#629=ADVANCED_FACE('',(#542),#596,.T.);
#630=ADVANCED_FACE('',(#543,#544),#13,.T.);
#631=ADVANCED_FACE('',(#545),#597,.T.);
#632=ADVANCED_FACE('',(#546,#547),#14,.T.);
#633=ADVANCED_FACE('',(#548),#598,.T.);
#634=ADVANCED_FACE('',(#549,#550),#15,.T.);
#635=ADVANCED_FACE('',(#551),#599,.T.);
#636=ADVANCED_FACE('',(#552,#553,#554,#555,#556),#600,.T.);
#637=ADVANCED_FACE('',(#557),#601,.F.);
#638=ADVANCED_FACE('',(#558),#602,.T.);
#639=ADVANCED_FACE('',(#559),#603,.T.);
#640=ADVANCED_FACE('',(#560),#604,.T.);
#641=ADVANCED_FACE('',(#561),#605,.T.);
#642=ADVANCED_FACE('',(#562),#606,.T.);
#643=ADVANCED_FACE('',(#563),#607,.T.);
#644=ADVANCED_FACE('',(#564),#608,.T.);
#645=ADVANCED_FACE('',(#565),#609,.F.);
#646=ADVANCED_FACE('',(#566),#610,.T.);
#647=ADVANCED_FACE('',(#567),#611,.T.);
#648=ADVANCED_FACE('',(#568,#569),#16,.F.);
#649=ADVANCED_FACE('',(#570),#612,.T.);
#650=ADVANCED_FACE('',(#571,#572),#17,.F.);
#651=ADVANCED_FACE('',(#573),#613,.T.);
#652=ADVANCED_FACE('',(#574,#575),#18,.T.);
#653=ADVANCED_FACE('',(#576),#614,.T.);
#654=ADVANCED_FACE('',(#577,#578),#19,.T.);
#655=ADVANCED_FACE('',(#579),#615,.T.);
#656=ADVANCED_FACE('',(#580,#581),#20,.T.);
#657=ADVANCED_FACE('',(#582),#616,.T.);
#658=ADVANCED_FACE('',(#583,#584),#21,.T.);
#659=ADVANCED_FACE('',(#585),#617,.T.);
#660=CLOSED_SHELL('',(#618,#619,#620,#621,#622,#623,#624,#625,#626,#627,#628,#629,#630,#631,#632,#633,#634,#635,#636,#637,#638,#639,#640,#641,#642,#643,#644,#645,#646,#647,#648,#649,#650,#651,#652,#653,#654,#655,#656,#657,#658,#659));
#661=STYLED_ITEM('',(#662),#669);
#662=PRESENTATION_STYLE_ASSIGNMENT((#663));
#663=SURFACE_STYLE_USAGE(.BOTH.,#664);
#664=SURFACE_SIDE_STYLE('',(#665));
#665=SURFACE_STYLE_FILL_AREA(#666);
#666=FILL_AREA_STYLE('',(#667));
#667=FILL_AREA_STYLE_COLOUR('',#668);
#668=COLOUR_RGB('',0.231372549019608,0.380392156862745,0.705882352941177);
#669=MANIFOLD_SOLID_BREP('bottom',#660);
#670=SHAPE_DEFINITION_REPRESENTATION(#1110,#671);
#671=SHAPE_REPRESENTATION('bottom',(#672),#1105);
#672=AXIS2_PLACEMENT_3D('',#921,#735,#736);
#673=AXIS2_PLACEMENT_3D('',#922,#737,#738);
#674=AXIS2_PLACEMENT_3D('',#939,#747,#748);
#675=AXIS2_PLACEMENT_3D('',#948,#753,#754);
#676=AXIS2_PLACEMENT_3D('',#954,#758,#759);
#677=AXIS2_PLACEMENT_3D('',#960,#763,#764);
#678=AXIS2_PLACEMENT_3D('',#966,#768,#769);
#679=AXIS2_PLACEMENT_3D('',#972,#773,#774);
#680=AXIS2_PLACEMENT_3D('',#978,#778,#779);
#681=AXIS2_PLACEMENT_3D('',#984,#783,#784);
#682=AXIS2_PLACEMENT_3D('',#995,#791,#792);
#683=AXIS2_PLACEMENT_3D('',#996,#793,#794);
#684=AXIS2_PLACEMENT_3D('',#998,#795,#796);
#685=AXIS2_PLACEMENT_3D('',#1000,#797,#798);
#686=AXIS2_PLACEMENT_3D('',#1002,#799,#800);
#687=AXIS2_PLACEMENT_3D('',#1004,#801,#802);
#688=AXIS2_PLACEMENT_3D('',#1006,#803,#804);
#689=AXIS2_PLACEMENT_3D('',#1008,#805,#806);
#690=AXIS2_PLACEMENT_3D('',#1009,#807,#808);
#691=AXIS2_PLACEMENT_3D('',#1011,#809,#810);
#692=AXIS2_PLACEMENT_3D('',#1012,#811,#812);
#693=AXIS2_PLACEMENT_3D('',#1013,#813,#814);
#694=AXIS2_PLACEMENT_3D('',#1015,#815,#816);
#695=AXIS2_PLACEMENT_3D('',#1016,#817,#818);
#696=AXIS2_PLACEMENT_3D('',#1017,#819,#820);
#697=AXIS2_PLACEMENT_3D('',#1019,#821,#822);
#698=AXIS2_PLACEMENT_3D('',#1020,#823,#824);
#699=AXIS2_PLACEMENT_3D('',#1021,#825,#826);
#700=AXIS2_PLACEMENT_3D('',#1023,#827,#828);
#701=AXIS2_PLACEMENT_3D('',#1024,#829,#830);
#702=AXIS2_PLACEMENT_3D('',#1025,#831,#832);
#703=AXIS2_PLACEMENT_3D('',#1027,#833,#834);
#704=AXIS2_PLACEMENT_3D('',#1029,#835,#836);
#705=AXIS2_PLACEMENT_3D('',#1031,#837,#838);
#706=AXIS2_PLACEMENT_3D('',#1048,#848,#849);
#707=AXIS2_PLACEMENT_3D('',#1062,#857,#858);
#708=AXIS2_PLACEMENT_3D('',#1065,#861,#862);
#709=AXIS2_PLACEMENT_3D('',#1067,#864,#865);
#710=AXIS2_PLACEMENT_3D('',#1069,#867,#868);
#711=AXIS2_PLACEMENT_3D('',#1071,#870,#871);
#712=AXIS2_PLACEMENT_3D('',#1072,#872,#873);
#713=AXIS2_PLACEMENT_3D('',#1074,#875,#876);
#714=AXIS2_PLACEMENT_3D('',#1075,#877,#878);
#715=AXIS2_PLACEMENT_3D('',#1077,#880,#881);
#716=AXIS2_PLACEMENT_3D('',#1079,#883,#884);
#717=AXIS2_PLACEMENT_3D('',#1080,#885,#886);
#718=AXIS2_PLACEMENT_3D('',#1081,#887,#888);
#719=AXIS2_PLACEMENT_3D('',#1083,#889,#890);
#720=AXIS2_PLACEMENT_3D('',#1084,#891,#892);
#721=AXIS2_PLACEMENT_3D('',#1085,#893,#894);
#722=AXIS2_PLACEMENT_3D('',#1087,#895,#896);
#723=AXIS2_PLACEMENT_3D('',#1088,#897,#898);
#724=AXIS2_PLACEMENT_3D('',#1089,#899,#900);
#725=AXIS2_PLACEMENT_3D('',#1091,#901,#902);
#726=AXIS2_PLACEMENT_3D('',#1092,#903,#904);
#727=AXIS2_PLACEMENT_3D('',#1093,#905,#906);
#728=AXIS2_PLACEMENT_3D('',#1095,#907,#908);
#729=AXIS2_PLACEMENT_3D('',#1096,#909,#910);
#730=AXIS2_PLACEMENT_3D('',#1097,#911,#912);
#731=AXIS2_PLACEMENT_3D('',#1099,#913,#914);
#732=AXIS2_PLACEMENT_3D('',#1100,#915,#916);
#733=AXIS2_PLACEMENT_3D('',#1101,#917,#918);
#734=AXIS2_PLACEMENT_3D('',#1103,#919,#920);
#735=DIRECTION('',(0.,0.,1.));
#736=DIRECTION('',(1.,0.,0.));
#737=DIRECTION('',(-1.,2.95604093291216E-16,0.));
#738=DIRECTION('',(-2.95604093291216E-16,-1.,0.));
#739=DIRECTION('',(2.95604093291216E-16,1.,0.));
#740=DIRECTION('',(0.,0.,-1.));
#741=DIRECTION('',(0.,1.,0.));
#742=DIRECTION('',(0.,0.,-1.));
#743=DIRECTION('',(2.95604093291216E-16,1.,0.));
#744=DIRECTION('',(0.,0.,-1.));
#745=DIRECTION('',(2.95604093291216E-16,1.,0.));
#746=DIRECTION('',(0.,0.,-1.));
#747=DIRECTION('',(-0.701139613482713,0.713024012502603,0.));
#748=DIRECTION('',(-0.713024012502603,-0.701139613482713,0.));
#749=DIRECTION('',(0.713024012502603,0.701139613482713,0.));
#750=DIRECTION('',(0.,0.,-1.));
#751=DIRECTION('',(0.713024012502603,0.701139613482713,0.));
#752=DIRECTION('',(0.,0.,-1.));
#753=DIRECTION('',(0.,1.,0.));
#754=DIRECTION('',(0.,0.,1.));
#755=DIRECTION('',(1.,0.,0.));
#756=DIRECTION('',(0.,0.,-1.));
#757=DIRECTION('',(1.,0.,0.));
#758=DIRECTION('',(0.699245525599221,0.714881595041773,0.));
#759=DIRECTION('',(-0.714881595041773,0.699245525599221,0.));
#760=DIRECTION('',(0.714881595041773,-0.699245525599221,0.));
#761=DIRECTION('',(0.,0.,-1.));
#762=DIRECTION('',(0.714881595041773,-0.699245525599221,0.));
#763=DIRECTION('',(0.999992681325473,-0.00382587186024634,0.));
#764=DIRECTION('',(0.00382587186024634,0.999992681325473,0.));
#765=DIRECTION('',(-0.00382587186024634,-0.999992681325473,0.));
#766=DIRECTION('',(0.,0.,-1.));
#767=DIRECTION('',(-0.00382587186024625,-0.999992681325473,0.));
#768=DIRECTION('',(0.697153593057509,-0.716921800259279,0.));
#769=DIRECTION('',(0.716921800259279,0.697153593057509,0.));
#770=DIRECTION('',(-0.716921800259279,-0.697153593057509,0.));
#771=DIRECTION('',(0.,0.,-1.));
#772=DIRECTION('',(-0.716921800259279,-0.697153593057509,0.));
#773=DIRECTION('',(0.,-1.,0.));
#774=DIRECTION('',(0.,0.,-1.));
#775=DIRECTION('',(-1.,0.,0.));
#776=DIRECTION('',(0.,0.,-1.));
#777=DIRECTION('',(-1.,0.,0.));
#778=DIRECTION('',(-0.707770181242468,-0.706442758151009,0.));
#779=DIRECTION('',(0.706442758151009,-0.707770181242468,0.));
#780=DIRECTION('',(-0.706442758151009,0.707770181242468,0.));
#781=DIRECTION('',(0.,0.,-1.));
#782=DIRECTION('',(-0.706442758151009,0.707770181242468,0.));
#783=DIRECTION('',(-1.,0.,0.));
#784=DIRECTION('',(0.,0.,1.));
#785=DIRECTION('',(3.18341314718872E-16,1.,0.));
#786=DIRECTION('',(0.,0.,-1.));
#787=DIRECTION('',(0.,1.,0.));
#788=DIRECTION('',(0.,0.,-1.));
#789=DIRECTION('',(3.18341314718872E-16,1.,0.));
#790=DIRECTION('',(0.,1.,0.));
#791=DIRECTION('',(0.,0.,1.));
#792=DIRECTION('',(1.,0.,0.));
#793=DIRECTION('',(0.,0.,1.));
#794=DIRECTION('',(1.,0.,0.));
#795=DIRECTION('',(0.,0.,1.));
#796=DIRECTION('',(1.,0.,0.));
#797=DIRECTION('',(0.,0.,1.));
#798=DIRECTION('',(1.,0.,0.));
#799=DIRECTION('',(0.,0.,1.));
#800=DIRECTION('',(1.,0.,0.));
#801=DIRECTION('',(0.,0.,1.));
#802=DIRECTION('',(1.,0.,0.));
#803=DIRECTION('',(0.,0.,1.));
#804=DIRECTION('',(1.,0.,0.));
#805=DIRECTION('',(0.,0.,-1.));
#806=DIRECTION('',(-1.,0.,0.));
#807=DIRECTION('',(0.,0.,1.));
#808=DIRECTION('',(1.,0.,0.));
#809=DIRECTION('',(0.,0.,1.));
#810=DIRECTION('',(1.,0.,0.));
#811=DIRECTION('',(0.,0.,-1.));
#812=DIRECTION('',(-1.,0.,0.));
#813=DIRECTION('',(0.,0.,1.));
#814=DIRECTION('',(1.,0.,0.));
#815=DIRECTION('',(0.,0.,1.));
#816=DIRECTION('',(1.,0.,0.));
#817=DIRECTION('',(0.,0.,-1.));
#818=DIRECTION('',(-1.,0.,0.));
#819=DIRECTION('',(0.,0.,1.));
#820=DIRECTION('',(1.,0.,0.));
#821=DIRECTION('',(0.,0.,1.));
#822=DIRECTION('',(1.,0.,0.));
#823=DIRECTION('',(0.,0.,-1.));
#824=DIRECTION('',(-1.,0.,0.));
#825=DIRECTION('',(0.,0.,1.));
#826=DIRECTION('',(1.,0.,0.));
#827=DIRECTION('',(0.,0.,1.));
#828=DIRECTION('',(1.,0.,0.));
#829=DIRECTION('',(0.,0.,1.));
#830=DIRECTION('',(1.,0.,0.));
#831=DIRECTION('',(0.,0.,1.));
#832=DIRECTION('',(1.,0.,0.));
#833=DIRECTION('',(0.,0.,1.));
#834=DIRECTION('',(1.,0.,0.));
#835=DIRECTION('',(0.,0.,1.));
#836=DIRECTION('',(1.,0.,0.));
#837=DIRECTION('',(0.,0.,1.));
#838=DIRECTION('',(1.,0.,0.));
#839=DIRECTION('',(1.,0.,0.));
#840=DIRECTION('',(-0.706442758151009,0.707770181242467,0.));
#841=DIRECTION('',(-1.,0.,0.));
#842=DIRECTION('',(-0.716921800259279,-0.697153593057509,0.));
#843=DIRECTION('',(-0.00382587186024625,-0.999992681325473,0.));
#844=DIRECTION('',(0.714881595041773,-0.699245525599221,0.));
#845=DIRECTION('',(1.,0.,0.));
#846=DIRECTION('',(0.713024012502603,0.701139613482713,0.));
#847=DIRECTION('',(1.,0.,0.));
#848=DIRECTION('',(0.,0.,1.));
#849=DIRECTION('',(1.,0.,0.));
#850=DIRECTION('',(1.,0.,0.));
#851=DIRECTION('',(0.714881595041773,-0.699245525599221,0.));
#852=DIRECTION('',(-0.00382587186024616,-0.999992681325473,0.));
#853=DIRECTION('',(-0.716921800259279,-0.697153593057509,0.));
#854=DIRECTION('',(-1.,0.,0.));
#855=DIRECTION('',(-0.706442758151009,0.707770181242467,0.));
#856=DIRECTION('',(0.713024012502603,0.701139613482713,0.));
#857=DIRECTION('',(0.699245525599221,0.714881595041773,0.));
#858=DIRECTION('',(-0.714881595041773,0.699245525599221,0.));
#859=DIRECTION('',(0.,0.,-1.));
#860=DIRECTION('',(0.,0.,-1.));
#861=DIRECTION('',(0.999992681325473,-0.00382587186024616,0.));
#862=DIRECTION('',(0.00382587186024616,0.999992681325473,0.));
#863=DIRECTION('',(0.,0.,-1.));
#864=DIRECTION('',(0.697153593057509,-0.716921800259279,0.));
#865=DIRECTION('',(0.716921800259279,0.697153593057509,0.));
#866=DIRECTION('',(0.,0.,-1.));
#867=DIRECTION('',(0.,-1.,0.));
#868=DIRECTION('',(0.,0.,-1.));
#869=DIRECTION('',(0.,0.,-1.));
#870=DIRECTION('',(-0.707770181242467,-0.706442758151009,0.));
#871=DIRECTION('',(0.706442758151009,-0.707770181242467,0.));
#872=DIRECTION('',(-0.701139613482713,0.713024012502603,0.));
#873=DIRECTION('',(-0.713024012502603,-0.701139613482713,0.));
#874=DIRECTION('',(0.,0.,-1.));
#875=DIRECTION('',(0.,1.,0.));
#876=DIRECTION('',(0.,0.,1.));
#877=DIRECTION('',(0.,-1.,0.));
#878=DIRECTION('',(0.,0.,-1.));
#879=DIRECTION('',(-1.,0.,0.));
#880=DIRECTION('',(0.,-1.,0.));
#881=DIRECTION('',(0.,0.,-1.));
#882=DIRECTION('',(-1.,0.,0.));
#883=DIRECTION('',(0.,0.,1.));
#884=DIRECTION('',(1.,0.,0.));
#885=DIRECTION('',(0.,0.,-1.));
#886=DIRECTION('',(-1.,0.,0.));
#887=DIRECTION('',(0.,0.,1.));
#888=DIRECTION('',(1.,0.,0.));
#889=DIRECTION('',(0.,0.,1.));
#890=DIRECTION('',(1.,0.,0.));
#891=DIRECTION('',(0.,0.,-1.));
#892=DIRECTION('',(-1.,0.,0.));
#893=DIRECTION('',(0.,0.,1.));
#894=DIRECTION('',(1.,0.,0.));
#895=DIRECTION('',(0.,0.,1.));
#896=DIRECTION('',(1.,0.,0.));
#897=DIRECTION('',(0.,0.,-1.));
#898=DIRECTION('',(-1.,0.,0.));
#899=DIRECTION('',(0.,0.,1.));
#900=DIRECTION('',(1.,0.,0.));
#901=DIRECTION('',(0.,0.,1.));
#902=DIRECTION('',(1.,0.,0.));
#903=DIRECTION('',(0.,0.,-1.));
#904=DIRECTION('',(-1.,0.,0.));
#905=DIRECTION('',(0.,0.,1.));
#906=DIRECTION('',(1.,0.,0.));
#907=DIRECTION('',(0.,0.,1.));
#908=DIRECTION('',(1.,0.,0.));
#909=DIRECTION('',(0.,0.,-1.));
#910=DIRECTION('',(-1.,0.,0.));
#911=DIRECTION('',(0.,0.,1.));
#912=DIRECTION('',(1.,0.,0.));
#913=DIRECTION('',(0.,0.,1.));
#914=DIRECTION('',(1.,0.,0.));
#915=DIRECTION('',(0.,0.,-1.));
#916=DIRECTION('',(-1.,0.,0.));
#917=DIRECTION('',(0.,0.,1.));
#918=DIRECTION('',(1.,0.,0.));
#919=DIRECTION('',(0.,0.,1.));
#920=DIRECTION('',(1.,0.,0.));
#921=CARTESIAN_POINT('',(0.,0.,0.));
#922=CARTESIAN_POINT('',(-0.0257360615584737,0.011459050259603,0.0104));
#923=CARTESIAN_POINT('',(-0.0257360615584737,0.011459050259603,0.013));
#924=CARTESIAN_POINT('',(-0.0257360615584737,-0.0184042718214898,0.013));
#925=CARTESIAN_POINT('',(-0.0257360615584737,-0.00688922638073564,0.013));
#926=CARTESIAN_POINT('',(-0.0257360615584737,-0.00688922638073564,0.015));
#927=CARTESIAN_POINT('',(-0.0257360615584737,-0.00688922638073564,0.0105));
#928=CARTESIAN_POINT('',(-0.0257360615584737,-0.000649288762360811,0.0105));
#929=CARTESIAN_POINT('',(-0.0257360615584737,0.00559064885601401,0.0105));
#930=CARTESIAN_POINT('',(-0.0257360615584737,0.00559064885601401,0.015));
#931=CARTESIAN_POINT('',(-0.0257360615584737,0.00559064885601401,0.013));
#932=CARTESIAN_POINT('',(-0.0257360615584737,0.011459050259603,0.013));
#933=CARTESIAN_POINT('',(-0.0257360615584737,0.0173274516631919,0.013));
#934=CARTESIAN_POINT('',(-0.0257360615584737,0.0173274516631919,0.0104));
#935=CARTESIAN_POINT('',(-0.0257360615584737,0.0173274516631919,0.0054));
#936=CARTESIAN_POINT('',(-0.0257360615584737,0.011459050259603,0.0054));
#937=CARTESIAN_POINT('',(-0.0257360615584737,-0.0184042718214898,0.0054));
#938=CARTESIAN_POINT('',(-0.0257360615584737,-0.0184042718214898,0.0104));
#939=CARTESIAN_POINT('',(-0.0211626956925067,0.0190196358735725,0.0114));
#940=CARTESIAN_POINT('',(-0.0211626956925067,0.0190196358735725,0.0104));
#941=CARTESIAN_POINT('',(-0.0237360615584737,0.0164891618404737,0.0104));
#942=CARTESIAN_POINT('',(-0.0185893298265398,0.0215501099066711,0.0104));
#943=CARTESIAN_POINT('',(-0.0185893298265398,0.0215501099066711,0.0114));
#944=CARTESIAN_POINT('',(-0.0185893298265398,0.0215501099066711,0.013));
#945=CARTESIAN_POINT('',(-0.0211626956925067,0.0190196358735725,0.013));
#946=CARTESIAN_POINT('',(-0.0237360615584737,0.0164891618404737,0.013));
#947=CARTESIAN_POINT('',(-0.0237360615584737,0.0164891618404737,0.0114));
#948=CARTESIAN_POINT('',(0.021821586375274,0.0215501099066711,0.0114));
#949=CARTESIAN_POINT('',(0.021821586375274,0.0215501099066711,0.0104));
#950=CARTESIAN_POINT('',(0.0224181878513848,0.0215501099066711,0.0104));
#951=CARTESIAN_POINT('',(0.0224181878513848,0.0215501099066711,0.0114));
#952=CARTESIAN_POINT('',(0.0224181878513848,0.0215501099066711,0.013));
#953=CARTESIAN_POINT('',(-0.0161346462158889,0.0215501099066711,0.013));
#954=CARTESIAN_POINT('',(0.0240349658631686,0.0199686944688307,0.0114));
#955=CARTESIAN_POINT('',(0.0240349658631686,0.0199686944688307,0.0104));
#956=CARTESIAN_POINT('',(0.0256517438749526,0.0183872790309901,0.0104));
#957=CARTESIAN_POINT('',(0.0256517438749526,0.0183872790309901,0.0114));
#958=CARTESIAN_POINT('',(0.0256517438749526,0.0183872790309901,0.013));
#959=CARTESIAN_POINT('',(0.0240349658631686,0.0199686944688307,0.013));
#960=CARTESIAN_POINT('',(0.0256245375236979,0.0112761804019717,0.0114));
#961=CARTESIAN_POINT('',(0.0256245375236979,0.0112761804019717,0.0104));
#962=CARTESIAN_POINT('',(0.0255058517196837,-0.0197454898804652,0.0104));
#963=CARTESIAN_POINT('',(0.0255058517196837,-0.0197454898804652,0.0114));
#964=CARTESIAN_POINT('',(0.0255058517196837,-0.0197454898804652,0.013));
#965=CARTESIAN_POINT('',(0.0255332620642966,-0.0125810721982383,0.013));
#966=CARTESIAN_POINT('',(0.0238731472748418,-0.0213331745759381,0.0114));
#967=CARTESIAN_POINT('',(0.0238731472748418,-0.0213331745759381,0.0104));
#968=CARTESIAN_POINT('',(0.0222404428299997,-0.0229208592714111,0.0104));
#969=CARTESIAN_POINT('',(0.0222404428299997,-0.0229208592714111,0.0114));
#970=CARTESIAN_POINT('',(0.0222404428299997,-0.0229208592714111,0.013));
#971=CARTESIAN_POINT('',(0.0238731472748418,-0.0213331745759381,0.013));
#972=CARTESIAN_POINT('',(0.0137842423282564,-0.0229208592714111,0.0114));
#973=CARTESIAN_POINT('',(0.0137842423282564,-0.0229208592714111,0.0104));
#974=CARTESIAN_POINT('',(-0.01840216895729,-0.0229208592714111,0.0104));
#975=CARTESIAN_POINT('',(-0.01840216895729,-0.0229208592714111,0.0114));
#976=CARTESIAN_POINT('',(-0.01840216895729,-0.0229208592714111,0.013));
#977=CARTESIAN_POINT('',(-0.016041065781264,-0.0229208592714111,0.013));
#978=CARTESIAN_POINT('',(-0.0210691152578819,-0.0202489017139803,0.0114));
#979=CARTESIAN_POINT('',(-0.0210691152578819,-0.0202489017139803,0.0104));
#980=CARTESIAN_POINT('',(-0.0237360615584737,-0.0175769441565495,0.0104));
#981=CARTESIAN_POINT('',(-0.0237360615584737,-0.0175769441565495,0.0114));
#982=CARTESIAN_POINT('',(-0.0237360615584737,-0.0175769441565495,0.013));
#983=CARTESIAN_POINT('',(-0.0210691152578819,-0.0202489017139803,0.013));
#984=CARTESIAN_POINT('',(-0.0237360615584737,-0.000649288762360811,0.0114));
#985=CARTESIAN_POINT('',(-0.0237360615584737,0.0110399053482439,0.013));
#986=CARTESIAN_POINT('',(-0.0237360615584737,0.00559064885601401,0.013));
#987=CARTESIAN_POINT('',(-0.0237360615584737,0.00559064885601401,0.015));
#988=CARTESIAN_POINT('',(-0.0237360615584737,0.00559064885601401,0.0105));
#989=CARTESIAN_POINT('',(-0.0237360615584737,-0.000649288762360811,0.0105));
#990=CARTESIAN_POINT('',(-0.0237360615584737,-0.00688922638073564,0.0105));
#991=CARTESIAN_POINT('',(-0.0237360615584737,-0.00688922638073564,0.015));
#992=CARTESIAN_POINT('',(-0.0237360615584737,-0.00688922638073564,0.013));
#993=CARTESIAN_POINT('',(-0.0237360615584737,0.0110399053482439,0.013));
#994=CARTESIAN_POINT('',(-0.0237360615584737,-0.000649288762360811,0.0104));
#995=CARTESIAN_POINT('',(0.000855531543493271,-0.000574297271668911,0.0104));
#996=CARTESIAN_POINT('',(-0.0176159515976906,0.00909939873963594,0.0104));
#997=CARTESIAN_POINT('',(-0.0156659515976906,0.00909939873963594,0.0104));
#998=CARTESIAN_POINT('',(0.00243517546914518,-0.00986352283507586,0.0104));
#999=CARTESIAN_POINT('',(0.00438517546914518,-0.00986352283507586,0.0104));
#1000=CARTESIAN_POINT('',(0.0187,0.0139685375615954,0.0104));
#1001=CARTESIAN_POINT('',(0.0237,0.0139685375615954,0.0104));
#1002=CARTESIAN_POINT('',(0.0187,-0.015,0.0104));
#1003=CARTESIAN_POINT('',(0.0237,-0.015,0.0104));
#1004=CARTESIAN_POINT('',(-0.00747541431337595,-0.015,0.0104));
#1005=CARTESIAN_POINT('',(-0.00247541431337595,-0.015,0.0104));
#1006=CARTESIAN_POINT('',(-0.00747541431337595,0.0139685375615954,0.0104));
#1007=CARTESIAN_POINT('',(-0.00247541431337595,0.0139685375615954,0.0104));
#1008=CARTESIAN_POINT('',(-0.00747541431337595,0.0139685375615954,0.0114));
#1009=CARTESIAN_POINT('',(-0.00747541431337595,0.0139685375615954,0.0114));
#1010=CARTESIAN_POINT('',(-0.00247541431337595,0.0139685375615954,0.0114));
#1011=CARTESIAN_POINT('',(0.000855531543493271,-0.000574297271668911,0.0114));
#1012=CARTESIAN_POINT('',(-0.00747541431337595,-0.015,0.0114));
#1013=CARTESIAN_POINT('',(-0.00747541431337595,-0.015,0.0114));
#1014=CARTESIAN_POINT('',(-0.00247541431337595,-0.015,0.0114));
#1015=CARTESIAN_POINT('',(0.000855531543493271,-0.000574297271668911,0.0114));
#1016=CARTESIAN_POINT('',(0.0187,-0.015,0.0114));
#1017=CARTESIAN_POINT('',(0.0187,-0.015,0.0114));
#1018=CARTESIAN_POINT('',(0.0237,-0.015,0.0114));
#1019=CARTESIAN_POINT('',(0.000855531543493271,-0.000574297271668911,0.0114));
#1020=CARTESIAN_POINT('',(0.0187,0.0139685375615954,0.0114));
#1021=CARTESIAN_POINT('',(0.0187,0.0139685375615954,0.0114));
#1022=CARTESIAN_POINT('',(0.0237,0.0139685375615954,0.0114));
#1023=CARTESIAN_POINT('',(0.000855531543493271,-0.000574297271668911,0.0114));
#1024=CARTESIAN_POINT('',(0.000855531543493271,-0.000574297271668911,0.013));
#1025=CARTESIAN_POINT('',(0.0246018806168318,-0.0221048824340868,0.013));
#1026=CARTESIAN_POINT('',(0.0252018806168318,-0.0221048824340868,0.013));
#1027=CARTESIAN_POINT('',(0.0247824744692538,0.0206324856755089,0.013));
#1028=CARTESIAN_POINT('',(0.0253824744692538,0.0206324856755089,0.013));
#1029=CARTESIAN_POINT('',(-0.0218267999589443,0.0197286102920771,0.013));
#1030=CARTESIAN_POINT('',(-0.0212267999589443,0.0197286102920771,0.013));
#1031=CARTESIAN_POINT('',(-0.0218141283839941,-0.0208514668047428,0.013));
#1032=CARTESIAN_POINT('',(-0.0212141283839941,-0.0208514668047428,0.013));
#1033=CARTESIAN_POINT('',(0.000855531543493271,-0.00688922638073564,0.013));
#1034=CARTESIAN_POINT('',(-0.0224838787639308,-0.0216625655464505,0.013));
#1035=CARTESIAN_POINT('',(-0.0192316959693879,-0.024920859271411,0.013));
#1036=CARTESIAN_POINT('',(-0.0164558292873129,-0.024920859271411,0.013));
#1037=CARTESIAN_POINT('',(0.0230525399132241,-0.024920859271411,0.013));
#1038=CARTESIAN_POINT('',(0.025277580967723,-0.0227571708952404,0.013));
#1039=CARTESIAN_POINT('',(0.027502622022222,-0.0205934825190697,0.013));
#1040=CARTESIAN_POINT('',(0.0275316545342938,-0.0130050685175406,0.013));
#1041=CARTESIAN_POINT('',(0.0276549656086575,0.0192255383596398,0.013));
#1042=CARTESIAN_POINT('',(0.0254443282200488,0.0213878241331555,0.013));
#1043=CARTESIAN_POINT('',(0.02323369083144,0.0235501099066712,0.013));
#1044=CARTESIAN_POINT('',(-0.0165439455650897,0.0235501099066712,0.013));
#1045=CARTESIAN_POINT('',(-0.0194079285249414,0.0235501099066712,0.013));
#1046=CARTESIAN_POINT('',(-0.0225719950417076,0.0204387807849315,0.013));
#1047=CARTESIAN_POINT('',(0.000855531543493271,0.00559064885601401,0.013));
#1048=CARTESIAN_POINT('',(0.000855531543493271,-0.000574297271668911,0.0054));
#1049=CARTESIAN_POINT('',(0.0222293378653016,0.0235501099066712,0.0054));
#1050=CARTESIAN_POINT('',(-0.0194079285249414,0.0235501099066712,0.0054));
#1051=CARTESIAN_POINT('',(0.02323369083144,0.0235501099066712,0.0054));
#1052=CARTESIAN_POINT('',(0.0254443282200488,0.0213878241331555,0.0054));
#1053=CARTESIAN_POINT('',(0.0276549656086575,0.0192255383596398,0.0054));
#1054=CARTESIAN_POINT('',(0.0276261557092785,0.0116953100662965,0.0054));
#1055=CARTESIAN_POINT('',(0.027502622022222,-0.0205934825190697,0.0054));
#1056=CARTESIAN_POINT('',(0.025277580967723,-0.0227571708952404,0.0054));
#1057=CARTESIAN_POINT('',(0.0230525399132241,-0.024920859271411,0.0054));
#1058=CARTESIAN_POINT('',(-0.0164558292873129,-0.024920859271411,0.0054));
#1059=CARTESIAN_POINT('',(-0.0192316959693879,-0.024920859271411,0.0054));
#1060=CARTESIAN_POINT('',(-0.0224838787639308,-0.0216625655464505,0.0054));
#1061=CARTESIAN_POINT('',(-0.0225719950417076,0.0204387807849315,0.0054));
#1062=CARTESIAN_POINT('',(0.0254443282200488,0.0213878241331555,0.0104));
#1063=CARTESIAN_POINT('',(0.02323369083144,0.0235501099066712,0.0104));
#1064=CARTESIAN_POINT('',(0.0276549656086575,0.0192255383596398,0.0104));
#1065=CARTESIAN_POINT('',(0.0276261557092785,0.0116953100662965,0.0104));
#1066=CARTESIAN_POINT('',(0.027502622022222,-0.0205934825190697,0.0104));
#1067=CARTESIAN_POINT('',(0.025277580967723,-0.0227571708952404,0.0104));
#1068=CARTESIAN_POINT('',(0.0230525399132241,-0.024920859271411,0.0104));
#1069=CARTESIAN_POINT('',(-0.0164558292873129,-0.024920859271411,0.0104));
#1070=CARTESIAN_POINT('',(-0.0192316959693879,-0.024920859271411,0.0104));
#1071=CARTESIAN_POINT('',(-0.0224838787639308,-0.0216625655464505,0.0104));
#1072=CARTESIAN_POINT('',(-0.0225719950417076,0.0204387807849315,0.0104));
#1073=CARTESIAN_POINT('',(-0.0194079285249414,0.0235501099066712,0.0104));
#1074=CARTESIAN_POINT('',(0.0222293378653016,0.0235501099066712,0.0104));
#1075=CARTESIAN_POINT('',(-0.0247360615584737,-0.00688922638073564,0.015));
#1076=CARTESIAN_POINT('',(-0.0247360615584737,-0.00688922638073564,0.0105));
#1077=CARTESIAN_POINT('',(-0.0247360615584737,0.00559064885601401,0.015));
#1078=CARTESIAN_POINT('',(-0.0247360615584737,0.00559064885601401,0.0105));
#1079=CARTESIAN_POINT('',(0.000855531543493271,-0.000574297271668911,0.0105));
#1080=CARTESIAN_POINT('',(0.00243517546914518,-0.00986352283507586,0.0104));
#1081=CARTESIAN_POINT('',(0.00243517546914518,-0.00986352283507586,0.0064));
#1082=CARTESIAN_POINT('',(0.00438517546914518,-0.00986352283507586,0.0064));
#1083=CARTESIAN_POINT('',(0.000855531543493271,-0.000574297271668911,0.0064));
#1084=CARTESIAN_POINT('',(-0.0176159515976906,0.00909939873963594,0.0104));
#1085=CARTESIAN_POINT('',(-0.0176159515976906,0.00909939873963594,0.0064));
#1086=CARTESIAN_POINT('',(-0.0156659515976906,0.00909939873963594,0.0064));
#1087=CARTESIAN_POINT('',(0.000855531543493271,-0.000574297271668911,0.0064));
#1088=CARTESIAN_POINT('',(-0.0218141283839941,-0.0208514668047428,0.017));
#1089=CARTESIAN_POINT('',(-0.0218141283839941,-0.0208514668047428,0.017));
#1090=CARTESIAN_POINT('',(-0.0212141283839941,-0.0208514668047428,0.017));
#1091=CARTESIAN_POINT('',(0.000855531543493271,-0.000574297271668911,0.017));
#1092=CARTESIAN_POINT('',(-0.0218267999589443,0.0197286102920771,0.017));
#1093=CARTESIAN_POINT('',(-0.0218267999589443,0.0197286102920771,0.017));
#1094=CARTESIAN_POINT('',(-0.0212267999589443,0.0197286102920771,0.017));
#1095=CARTESIAN_POINT('',(0.000855531543493271,-0.000574297271668911,0.017));
#1096=CARTESIAN_POINT('',(0.0247824744692538,0.0206324856755089,0.017));
#1097=CARTESIAN_POINT('',(0.0247824744692538,0.0206324856755089,0.017));
#1098=CARTESIAN_POINT('',(0.0253824744692538,0.0206324856755089,0.017));
#1099=CARTESIAN_POINT('',(0.000855531543493271,-0.000574297271668911,0.017));
#1100=CARTESIAN_POINT('',(0.0246018806168318,-0.0221048824340868,0.017));
#1101=CARTESIAN_POINT('',(0.0246018806168318,-0.0221048824340868,0.017));
#1102=CARTESIAN_POINT('',(0.0252018806168318,-0.0221048824340868,0.017));
#1103=CARTESIAN_POINT('',(0.000855531543493271,-0.000574297271668911,0.017));
#1104=MECHANICAL_DESIGN_GEOMETRIC_PRESENTATION_REPRESENTATION('',(#661),#1105);
#1105=(
GEOMETRIC_REPRESENTATION_CONTEXT(3)
GLOBAL_UNCERTAINTY_ASSIGNED_CONTEXT((#1106))
GLOBAL_UNIT_ASSIGNED_CONTEXT((#1109,#1108,#1107))
REPRESENTATION_CONTEXT('bottom','TOP_LEVEL_ASSEMBLY_PART')
);
#1106=UNCERTAINTY_MEASURE_WITH_UNIT(LENGTH_MEASURE(1.E-08),#1109,'DISTANCE_ACCURACY_VALUE','Maximum Tolerance applied to model');
#1107=(
NAMED_UNIT(*)
SI_UNIT($,.STERADIAN.)
SOLID_ANGLE_UNIT()
);
#1108=(
NAMED_UNIT(*)
PLANE_ANGLE_UNIT()
SI_UNIT($,.RADIAN.)
);
#1109=(
LENGTH_UNIT()
NAMED_UNIT(*)
SI_UNIT($,.METRE.)
);
#1110=PRODUCT_DEFINITION_SHAPE('','',#1111);
#1111=PRODUCT_DEFINITION('','',#1113,#1112);
#1112=PRODUCT_DEFINITION_CONTEXT('',#1119,'design');
#1113=PRODUCT_DEFINITION_FORMATION_WITH_SPECIFIED_SOURCE('','',#1115,.NOT_KNOWN.);
#1114=PRODUCT_RELATED_PRODUCT_CATEGORY('','',(#1115));
#1115=PRODUCT('bottom','bottom','bottom',(#1117));
#1116=PRODUCT_CATEGORY('','');
#1117=PRODUCT_CONTEXT('',#1119,'mechanical');
#1118=APPLICATION_PROTOCOL_DEFINITION('international standard','ap242_managed_model_based_3d_engineering',2020,#1119);
#1119=APPLICATION_CONTEXT('managed model based 3d engineering');
ENDSEC;
END-ISO-10303-21;
