ISO-10303-21;
HEADER;
/*Generated by software containing ST-Developer
 * from STEP Tools, Inc. (www.steptools.com) 
 */
/*OPTION: using custom renumber hook */
/*description */
/*implementation_level */
FILE_DESCRIPTION(('STEP AP242 Edition 2','STEP AP242 Edition 2''CAx-IF Rec.Pracs.---Representation and Presentation of Product Manufa
cturing Information (PMI)---4.0---2014-10-13','STEP AP242 Edition 2''CAx-IF Rec.Pracs.---Representation and Presentation of Product Manufa
cturing Information (PMI)---4.0---2014-10-13''CAx-IF Rec.Pracs.---3D Tessellated Geometry---0.4---2014-09-14','STEP AP242 Edition 2''CAx-IF Rec.Pracs.---Representation and Presentation of Product Manufa
cturing Information (PMI)---4.0---2014-10-13''CAx-IF Rec.Pracs.---3D Tessellated Geometry---0.4---2014-09-14''2;1','STEP AP242 Edition 2''CAx-IF Rec.Pracs.---Representation and Presentation of Product Manufa
cturing Information (PMI)---4.0---2014-10-13''CAx-IF Rec.Pracs.---3D Tessellated Geometry---0.4---2014-09-14''2;1''CAx-IF Rec.Pracs.---User Defined Attributes---1.5---2016-08-15'),'2;1');
/*name */
/*time_stamp */
/*author */
/*organization */
/*preprocessor_version */
/*originating_system */
/*authorisation */
FILE_NAME('/vol/tmp/translate-1797147568430714021/Part Studio 1 - top.step','2026-03-23T23:43:15',(''),(''),'ST-DEVELOPER v20','ONSHAPE BY PTC INC, 1.212','  ');
FILE_SCHEMA(('AP242_MANAGED_MODEL_BASED_3D_ENGINEERING_MIM_LF { 1 0 10303 442 3 1 4 }'));
ENDSEC;
DATA;
#10=SHAPE_REPRESENTATION_RELATIONSHIP('','',#959,#11);
#11=ADVANCED_BREP_SHAPE_REPRESENTATION('',(#957),#1525);
#12=CIRCLE('',#979,0.0006);
#13=CIRCLE('',#980,0.0006);
#14=CIRCLE('',#991,0.0006);
#15=CIRCLE('',#992,0.0006);
#16=CIRCLE('',#999,0.0006);
#17=CIRCLE('',#1000,0.0006);
#18=CIRCLE('',#1013,0.0006);
#19=CIRCLE('',#1014,0.0006);
#20=CYLINDRICAL_SURFACE('',#978,0.0006);
#21=CYLINDRICAL_SURFACE('',#990,0.0006);
#22=CYLINDRICAL_SURFACE('',#998,0.0006);
#23=CYLINDRICAL_SURFACE('',#1012,0.0006);
#24=ORIENTED_EDGE('',*,*,#280,.F.);
#25=ORIENTED_EDGE('',*,*,#281,.T.);
#26=ORIENTED_EDGE('',*,*,#282,.T.);
#27=ORIENTED_EDGE('',*,*,#283,.F.);
#28=ORIENTED_EDGE('',*,*,#284,.F.);
#29=ORIENTED_EDGE('',*,*,#285,.T.);
#30=ORIENTED_EDGE('',*,*,#286,.T.);
#31=ORIENTED_EDGE('',*,*,#287,.F.);
#32=ORIENTED_EDGE('',*,*,#288,.F.);
#33=ORIENTED_EDGE('',*,*,#289,.T.);
#34=ORIENTED_EDGE('',*,*,#290,.T.);
#35=ORIENTED_EDGE('',*,*,#291,.F.);
#36=ORIENTED_EDGE('',*,*,#292,.F.);
#37=ORIENTED_EDGE('',*,*,#293,.T.);
#38=ORIENTED_EDGE('',*,*,#294,.T.);
#39=ORIENTED_EDGE('',*,*,#295,.F.);
#40=ORIENTED_EDGE('',*,*,#296,.T.);
#41=ORIENTED_EDGE('',*,*,#297,.T.);
#42=ORIENTED_EDGE('',*,*,#298,.T.);
#43=ORIENTED_EDGE('',*,*,#299,.T.);
#44=ORIENTED_EDGE('',*,*,#300,.T.);
#45=ORIENTED_EDGE('',*,*,#301,.T.);
#46=ORIENTED_EDGE('',*,*,#302,.F.);
#47=ORIENTED_EDGE('',*,*,#303,.T.);
#48=ORIENTED_EDGE('',*,*,#304,.T.);
#49=ORIENTED_EDGE('',*,*,#305,.T.);
#50=ORIENTED_EDGE('',*,*,#306,.F.);
#51=ORIENTED_EDGE('',*,*,#307,.T.);
#52=ORIENTED_EDGE('',*,*,#308,.T.);
#53=ORIENTED_EDGE('',*,*,#309,.T.);
#54=ORIENTED_EDGE('',*,*,#310,.T.);
#55=ORIENTED_EDGE('',*,*,#311,.T.);
#56=ORIENTED_EDGE('',*,*,#312,.T.);
#57=ORIENTED_EDGE('',*,*,#313,.T.);
#58=ORIENTED_EDGE('',*,*,#314,.F.);
#59=ORIENTED_EDGE('',*,*,#315,.T.);
#60=ORIENTED_EDGE('',*,*,#316,.T.);
#61=ORIENTED_EDGE('',*,*,#317,.T.);
#62=ORIENTED_EDGE('',*,*,#318,.F.);
#63=ORIENTED_EDGE('',*,*,#319,.T.);
#64=ORIENTED_EDGE('',*,*,#320,.T.);
#65=ORIENTED_EDGE('',*,*,#321,.F.);
#66=ORIENTED_EDGE('',*,*,#322,.F.);
#67=ORIENTED_EDGE('',*,*,#323,.T.);
#68=ORIENTED_EDGE('',*,*,#313,.F.);
#69=ORIENTED_EDGE('',*,*,#324,.T.);
#70=ORIENTED_EDGE('',*,*,#325,.F.);
#71=ORIENTED_EDGE('',*,*,#326,.F.);
#72=ORIENTED_EDGE('',*,*,#327,.T.);
#73=ORIENTED_EDGE('',*,*,#322,.T.);
#74=ORIENTED_EDGE('',*,*,#328,.F.);
#75=ORIENTED_EDGE('',*,*,#329,.F.);
#76=ORIENTED_EDGE('',*,*,#317,.F.);
#77=ORIENTED_EDGE('',*,*,#330,.T.);
#78=ORIENTED_EDGE('',*,*,#331,.F.);
#79=ORIENTED_EDGE('',*,*,#332,.F.);
#80=ORIENTED_EDGE('',*,*,#326,.T.);
#81=ORIENTED_EDGE('',*,*,#333,.F.);
#82=ORIENTED_EDGE('',*,*,#334,.F.);
#83=ORIENTED_EDGE('',*,*,#335,.T.);
#84=ORIENTED_EDGE('',*,*,#336,.F.);
#85=ORIENTED_EDGE('',*,*,#295,.T.);
#86=ORIENTED_EDGE('',*,*,#337,.F.);
#87=ORIENTED_EDGE('',*,*,#338,.F.);
#88=ORIENTED_EDGE('',*,*,#339,.T.);
#89=ORIENTED_EDGE('',*,*,#334,.T.);
#90=ORIENTED_EDGE('',*,*,#340,.F.);
#91=ORIENTED_EDGE('',*,*,#290,.F.);
#92=ORIENTED_EDGE('',*,*,#338,.T.);
#93=ORIENTED_EDGE('',*,*,#341,.F.);
#94=ORIENTED_EDGE('',*,*,#342,.F.);
#95=ORIENTED_EDGE('',*,*,#343,.T.);
#96=ORIENTED_EDGE('',*,*,#301,.F.);
#97=ORIENTED_EDGE('',*,*,#344,.T.);
#98=ORIENTED_EDGE('',*,*,#345,.F.);
#99=ORIENTED_EDGE('',*,*,#346,.F.);
#100=ORIENTED_EDGE('',*,*,#347,.T.);
#101=ORIENTED_EDGE('',*,*,#342,.T.);
#102=ORIENTED_EDGE('',*,*,#348,.F.);
#103=ORIENTED_EDGE('',*,*,#349,.F.);
#104=ORIENTED_EDGE('',*,*,#305,.F.);
#105=ORIENTED_EDGE('',*,*,#350,.T.);
#106=ORIENTED_EDGE('',*,*,#351,.F.);
#107=ORIENTED_EDGE('',*,*,#352,.F.);
#108=ORIENTED_EDGE('',*,*,#346,.T.);
#109=ORIENTED_EDGE('',*,*,#353,.F.);
#110=ORIENTED_EDGE('',*,*,#354,.F.);
#111=ORIENTED_EDGE('',*,*,#355,.T.);
#112=ORIENTED_EDGE('',*,*,#356,.F.);
#113=ORIENTED_EDGE('',*,*,#283,.T.);
#114=ORIENTED_EDGE('',*,*,#357,.F.);
#115=ORIENTED_EDGE('',*,*,#320,.F.);
#116=ORIENTED_EDGE('',*,*,#358,.T.);
#117=ORIENTED_EDGE('',*,*,#354,.T.);
#118=ORIENTED_EDGE('',*,*,#359,.F.);
#119=ORIENTED_EDGE('',*,*,#286,.F.);
#120=ORIENTED_EDGE('',*,*,#323,.F.);
#121=ORIENTED_EDGE('',*,*,#327,.F.);
#122=ORIENTED_EDGE('',*,*,#335,.F.);
#123=ORIENTED_EDGE('',*,*,#339,.F.);
#124=ORIENTED_EDGE('',*,*,#343,.F.);
#125=ORIENTED_EDGE('',*,*,#347,.F.);
#126=ORIENTED_EDGE('',*,*,#355,.F.);
#127=ORIENTED_EDGE('',*,*,#358,.F.);
#128=ORIENTED_EDGE('',*,*,#360,.T.);
#129=ORIENTED_EDGE('',*,*,#361,.F.);
#130=ORIENTED_EDGE('',*,*,#310,.F.);
#131=ORIENTED_EDGE('',*,*,#362,.T.);
#132=ORIENTED_EDGE('',*,*,#363,.T.);
#133=ORIENTED_EDGE('',*,*,#364,.F.);
#134=ORIENTED_EDGE('',*,*,#311,.F.);
#135=ORIENTED_EDGE('',*,*,#361,.T.);
#136=ORIENTED_EDGE('',*,*,#365,.T.);
#137=ORIENTED_EDGE('',*,*,#324,.F.);
#138=ORIENTED_EDGE('',*,*,#312,.F.);
#139=ORIENTED_EDGE('',*,*,#364,.T.);
#140=ORIENTED_EDGE('',*,*,#366,.T.);
#141=ORIENTED_EDGE('',*,*,#367,.F.);
#142=ORIENTED_EDGE('',*,*,#367,.T.);
#143=ORIENTED_EDGE('',*,*,#360,.F.);
#144=ORIENTED_EDGE('',*,*,#368,.F.);
#145=ORIENTED_EDGE('',*,*,#291,.T.);
#146=ORIENTED_EDGE('',*,*,#340,.T.);
#147=ORIENTED_EDGE('',*,*,#333,.T.);
#148=ORIENTED_EDGE('',*,*,#325,.T.);
#149=ORIENTED_EDGE('',*,*,#365,.F.);
#150=ORIENTED_EDGE('',*,*,#363,.F.);
#151=ORIENTED_EDGE('',*,*,#366,.F.);
#152=ORIENTED_EDGE('',*,*,#369,.F.);
#153=ORIENTED_EDGE('',*,*,#370,.F.);
#154=ORIENTED_EDGE('',*,*,#314,.T.);
#155=ORIENTED_EDGE('',*,*,#332,.T.);
#156=ORIENTED_EDGE('',*,*,#371,.T.);
#157=ORIENTED_EDGE('',*,*,#372,.F.);
#158=ORIENTED_EDGE('',*,*,#315,.F.);
#159=ORIENTED_EDGE('',*,*,#370,.T.);
#160=ORIENTED_EDGE('',*,*,#373,.T.);
#161=ORIENTED_EDGE('',*,*,#330,.F.);
#162=ORIENTED_EDGE('',*,*,#316,.F.);
#163=ORIENTED_EDGE('',*,*,#372,.T.);
#164=ORIENTED_EDGE('',*,*,#331,.T.);
#165=ORIENTED_EDGE('',*,*,#373,.F.);
#166=ORIENTED_EDGE('',*,*,#371,.F.);
#167=ORIENTED_EDGE('',*,*,#369,.T.);
#168=ORIENTED_EDGE('',*,*,#374,.F.);
#169=ORIENTED_EDGE('',*,*,#375,.F.);
#170=ORIENTED_EDGE('',*,*,#318,.T.);
#171=ORIENTED_EDGE('',*,*,#329,.T.);
#172=ORIENTED_EDGE('',*,*,#376,.T.);
#173=ORIENTED_EDGE('',*,*,#377,.F.);
#174=ORIENTED_EDGE('',*,*,#319,.F.);
#175=ORIENTED_EDGE('',*,*,#375,.T.);
#176=ORIENTED_EDGE('',*,*,#378,.T.);
#177=ORIENTED_EDGE('',*,*,#379,.F.);
#178=ORIENTED_EDGE('',*,*,#296,.F.);
#179=ORIENTED_EDGE('',*,*,#377,.T.);
#180=ORIENTED_EDGE('',*,*,#380,.T.);
#181=ORIENTED_EDGE('',*,*,#381,.F.);
#182=ORIENTED_EDGE('',*,*,#374,.T.);
#183=ORIENTED_EDGE('',*,*,#328,.T.);
#184=ORIENTED_EDGE('',*,*,#321,.T.);
#185=ORIENTED_EDGE('',*,*,#357,.T.);
#186=ORIENTED_EDGE('',*,*,#282,.F.);
#187=ORIENTED_EDGE('',*,*,#382,.F.);
#188=ORIENTED_EDGE('',*,*,#378,.F.);
#189=ORIENTED_EDGE('',*,*,#376,.F.);
#190=ORIENTED_EDGE('',*,*,#381,.T.);
#191=ORIENTED_EDGE('',*,*,#380,.F.);
#192=ORIENTED_EDGE('',*,*,#383,.T.);
#193=ORIENTED_EDGE('',*,*,#384,.F.);
#194=ORIENTED_EDGE('',*,*,#299,.F.);
#195=ORIENTED_EDGE('',*,*,#385,.T.);
#196=ORIENTED_EDGE('',*,*,#386,.T.);
#197=ORIENTED_EDGE('',*,*,#344,.F.);
#198=ORIENTED_EDGE('',*,*,#300,.F.);
#199=ORIENTED_EDGE('',*,*,#384,.T.);
#200=ORIENTED_EDGE('',*,*,#387,.T.);
#201=ORIENTED_EDGE('',*,*,#388,.F.);
#202=ORIENTED_EDGE('',*,*,#297,.F.);
#203=ORIENTED_EDGE('',*,*,#379,.T.);
#204=ORIENTED_EDGE('',*,*,#382,.T.);
#205=ORIENTED_EDGE('',*,*,#281,.F.);
#206=ORIENTED_EDGE('',*,*,#389,.T.);
#207=ORIENTED_EDGE('',*,*,#284,.T.);
#208=ORIENTED_EDGE('',*,*,#390,.T.);
#209=ORIENTED_EDGE('',*,*,#391,.F.);
#210=ORIENTED_EDGE('',*,*,#392,.T.);
#211=ORIENTED_EDGE('',*,*,#385,.F.);
#212=ORIENTED_EDGE('',*,*,#298,.F.);
#213=ORIENTED_EDGE('',*,*,#388,.T.);
#214=ORIENTED_EDGE('',*,*,#391,.T.);
#215=ORIENTED_EDGE('',*,*,#383,.F.);
#216=ORIENTED_EDGE('',*,*,#392,.F.);
#217=ORIENTED_EDGE('',*,*,#387,.F.);
#218=ORIENTED_EDGE('',*,*,#287,.T.);
#219=ORIENTED_EDGE('',*,*,#359,.T.);
#220=ORIENTED_EDGE('',*,*,#353,.T.);
#221=ORIENTED_EDGE('',*,*,#345,.T.);
#222=ORIENTED_EDGE('',*,*,#386,.F.);
#223=ORIENTED_EDGE('',*,*,#390,.F.);
#224=ORIENTED_EDGE('',*,*,#393,.T.);
#225=ORIENTED_EDGE('',*,*,#394,.F.);
#226=ORIENTED_EDGE('',*,*,#303,.F.);
#227=ORIENTED_EDGE('',*,*,#395,.T.);
#228=ORIENTED_EDGE('',*,*,#396,.T.);
#229=ORIENTED_EDGE('',*,*,#350,.F.);
#230=ORIENTED_EDGE('',*,*,#304,.F.);
#231=ORIENTED_EDGE('',*,*,#394,.T.);
#232=ORIENTED_EDGE('',*,*,#397,.F.);
#233=ORIENTED_EDGE('',*,*,#395,.F.);
#234=ORIENTED_EDGE('',*,*,#302,.T.);
#235=ORIENTED_EDGE('',*,*,#352,.T.);
#236=ORIENTED_EDGE('',*,*,#393,.F.);
#237=ORIENTED_EDGE('',*,*,#397,.T.);
#238=ORIENTED_EDGE('',*,*,#351,.T.);
#239=ORIENTED_EDGE('',*,*,#396,.F.);
#240=ORIENTED_EDGE('',*,*,#398,.F.);
#241=ORIENTED_EDGE('',*,*,#399,.F.);
#242=ORIENTED_EDGE('',*,*,#306,.T.);
#243=ORIENTED_EDGE('',*,*,#349,.T.);
#244=ORIENTED_EDGE('',*,*,#400,.T.);
#245=ORIENTED_EDGE('',*,*,#401,.F.);
#246=ORIENTED_EDGE('',*,*,#307,.F.);
#247=ORIENTED_EDGE('',*,*,#399,.T.);
#248=ORIENTED_EDGE('',*,*,#402,.T.);
#249=ORIENTED_EDGE('',*,*,#403,.F.);
#250=ORIENTED_EDGE('',*,*,#308,.F.);
#251=ORIENTED_EDGE('',*,*,#401,.T.);
#252=ORIENTED_EDGE('',*,*,#404,.T.);
#253=ORIENTED_EDGE('',*,*,#293,.F.);
#254=ORIENTED_EDGE('',*,*,#405,.T.);
#255=ORIENTED_EDGE('',*,*,#288,.T.);
#256=ORIENTED_EDGE('',*,*,#368,.T.);
#257=ORIENTED_EDGE('',*,*,#362,.F.);
#258=ORIENTED_EDGE('',*,*,#309,.F.);
#259=ORIENTED_EDGE('',*,*,#403,.T.);
#260=ORIENTED_EDGE('',*,*,#406,.T.);
#261=ORIENTED_EDGE('',*,*,#407,.F.);
#262=ORIENTED_EDGE('',*,*,#398,.T.);
#263=ORIENTED_EDGE('',*,*,#348,.T.);
#264=ORIENTED_EDGE('',*,*,#341,.T.);
#265=ORIENTED_EDGE('',*,*,#337,.T.);
#266=ORIENTED_EDGE('',*,*,#294,.F.);
#267=ORIENTED_EDGE('',*,*,#404,.F.);
#268=ORIENTED_EDGE('',*,*,#402,.F.);
#269=ORIENTED_EDGE('',*,*,#400,.F.);
#270=ORIENTED_EDGE('',*,*,#407,.T.);
#271=ORIENTED_EDGE('',*,*,#406,.F.);
#272=ORIENTED_EDGE('',*,*,#292,.T.);
#273=ORIENTED_EDGE('',*,*,#336,.T.);
#274=ORIENTED_EDGE('',*,*,#289,.F.);
#275=ORIENTED_EDGE('',*,*,#405,.F.);
#276=ORIENTED_EDGE('',*,*,#280,.T.);
#277=ORIENTED_EDGE('',*,*,#356,.T.);
#278=ORIENTED_EDGE('',*,*,#285,.F.);
#279=ORIENTED_EDGE('',*,*,#389,.F.);
#280=EDGE_CURVE('',#408,#409,#496,.T.);
#281=EDGE_CURVE('',#408,#410,#497,.T.);
#282=EDGE_CURVE('',#410,#411,#498,.T.);
#283=EDGE_CURVE('',#409,#411,#499,.T.);
#284=EDGE_CURVE('',#412,#413,#500,.T.);
#285=EDGE_CURVE('',#412,#414,#501,.T.);
#286=EDGE_CURVE('',#414,#415,#502,.T.);
#287=EDGE_CURVE('',#413,#415,#503,.T.);
#288=EDGE_CURVE('',#416,#417,#504,.T.);
#289=EDGE_CURVE('',#416,#418,#505,.T.);
#290=EDGE_CURVE('',#418,#419,#506,.T.);
#291=EDGE_CURVE('',#417,#419,#507,.T.);
#292=EDGE_CURVE('',#420,#421,#508,.T.);
#293=EDGE_CURVE('',#420,#422,#509,.T.);
#294=EDGE_CURVE('',#422,#423,#510,.T.);
#295=EDGE_CURVE('',#421,#423,#511,.T.);
#296=EDGE_CURVE('',#424,#425,#512,.T.);
#297=EDGE_CURVE('',#425,#426,#513,.T.);
#298=EDGE_CURVE('',#426,#427,#514,.T.);
#299=EDGE_CURVE('',#427,#428,#515,.T.);
#300=EDGE_CURVE('',#428,#429,#516,.T.);
#301=EDGE_CURVE('',#429,#430,#517,.T.);
#302=EDGE_CURVE('',#431,#430,#518,.T.);
#303=EDGE_CURVE('',#431,#432,#519,.T.);
#304=EDGE_CURVE('',#432,#433,#520,.T.);
#305=EDGE_CURVE('',#433,#434,#521,.T.);
#306=EDGE_CURVE('',#435,#434,#522,.T.);
#307=EDGE_CURVE('',#435,#436,#523,.T.);
#308=EDGE_CURVE('',#436,#437,#524,.T.);
#309=EDGE_CURVE('',#437,#438,#525,.T.);
#310=EDGE_CURVE('',#438,#439,#526,.T.);
#311=EDGE_CURVE('',#439,#440,#527,.T.);
#312=EDGE_CURVE('',#440,#441,#528,.T.);
#313=EDGE_CURVE('',#441,#442,#529,.T.);
#314=EDGE_CURVE('',#443,#442,#530,.T.);
#315=EDGE_CURVE('',#443,#444,#531,.T.);
#316=EDGE_CURVE('',#444,#445,#532,.T.);
#317=EDGE_CURVE('',#445,#446,#533,.T.);
#318=EDGE_CURVE('',#447,#446,#534,.T.);
#319=EDGE_CURVE('',#447,#424,#535,.T.);
#320=EDGE_CURVE('',#448,#449,#536,.T.);
#321=EDGE_CURVE('',#450,#449,#537,.T.);
#322=EDGE_CURVE('',#451,#450,#538,.T.);
#323=EDGE_CURVE('',#451,#448,#539,.T.);
#324=EDGE_CURVE('',#441,#452,#540,.T.);
#325=EDGE_CURVE('',#453,#452,#541,.T.);
#326=EDGE_CURVE('',#454,#453,#542,.T.);
#327=EDGE_CURVE('',#454,#451,#543,.T.);
#328=EDGE_CURVE('',#455,#450,#544,.T.);
#329=EDGE_CURVE('',#446,#455,#545,.T.);
#330=EDGE_CURVE('',#445,#456,#546,.T.);
#331=EDGE_CURVE('',#457,#456,#547,.T.);
#332=EDGE_CURVE('',#442,#457,#548,.T.);
#333=EDGE_CURVE('',#458,#453,#549,.T.);
#334=EDGE_CURVE('',#459,#458,#550,.T.);
#335=EDGE_CURVE('',#459,#454,#551,.T.);
#336=EDGE_CURVE('',#421,#418,#552,.T.);
#337=EDGE_CURVE('',#460,#423,#553,.T.);
#338=EDGE_CURVE('',#461,#460,#554,.T.);
#339=EDGE_CURVE('',#461,#459,#555,.T.);
#340=EDGE_CURVE('',#419,#458,#556,.T.);
#341=EDGE_CURVE('',#462,#460,#557,.T.);
#342=EDGE_CURVE('',#463,#462,#558,.T.);
#343=EDGE_CURVE('',#463,#461,#559,.T.);
#344=EDGE_CURVE('',#429,#464,#560,.T.);
#345=EDGE_CURVE('',#465,#464,#561,.T.);
#346=EDGE_CURVE('',#466,#465,#562,.T.);
#347=EDGE_CURVE('',#466,#463,#563,.T.);
#348=EDGE_CURVE('',#467,#462,#564,.T.);
#349=EDGE_CURVE('',#434,#467,#565,.T.);
#350=EDGE_CURVE('',#433,#468,#566,.T.);
#351=EDGE_CURVE('',#469,#468,#567,.T.);
#352=EDGE_CURVE('',#430,#469,#568,.T.);
#353=EDGE_CURVE('',#470,#465,#569,.T.);
#354=EDGE_CURVE('',#471,#470,#570,.T.);
#355=EDGE_CURVE('',#471,#466,#571,.T.);
#356=EDGE_CURVE('',#409,#414,#572,.T.);
#357=EDGE_CURVE('',#449,#411,#573,.T.);
#358=EDGE_CURVE('',#448,#471,#574,.T.);
#359=EDGE_CURVE('',#415,#470,#575,.T.);
#360=EDGE_CURVE('',#472,#473,#576,.T.);
#361=EDGE_CURVE('',#439,#473,#577,.T.);
#362=EDGE_CURVE('',#438,#472,#578,.T.);
#363=EDGE_CURVE('',#473,#474,#579,.T.);
#364=EDGE_CURVE('',#440,#474,#580,.T.);
#365=EDGE_CURVE('',#474,#452,#581,.T.);
#366=EDGE_CURVE('',#475,#475,#12,.T.);
#367=EDGE_CURVE('',#476,#476,#13,.T.);
#368=EDGE_CURVE('',#417,#472,#582,.T.);
#369=EDGE_CURVE('',#477,#457,#583,.T.);
#370=EDGE_CURVE('',#443,#477,#584,.T.);
#371=EDGE_CURVE('',#477,#478,#585,.T.);
#372=EDGE_CURVE('',#444,#478,#586,.T.);
#373=EDGE_CURVE('',#478,#456,#587,.T.);
#374=EDGE_CURVE('',#479,#455,#588,.T.);
#375=EDGE_CURVE('',#447,#479,#589,.T.);
#376=EDGE_CURVE('',#479,#480,#590,.T.);
#377=EDGE_CURVE('',#424,#480,#591,.T.);
#378=EDGE_CURVE('',#480,#481,#592,.T.);
#379=EDGE_CURVE('',#425,#481,#593,.T.);
#380=EDGE_CURVE('',#482,#482,#14,.T.);
#381=EDGE_CURVE('',#483,#483,#15,.T.);
#382=EDGE_CURVE('',#481,#410,#594,.T.);
#383=EDGE_CURVE('',#484,#485,#595,.T.);
#384=EDGE_CURVE('',#428,#485,#596,.T.);
#385=EDGE_CURVE('',#427,#484,#597,.T.);
#386=EDGE_CURVE('',#485,#464,#598,.T.);
#387=EDGE_CURVE('',#413,#486,#599,.T.);
#388=EDGE_CURVE('',#426,#486,#600,.T.);
#389=EDGE_CURVE('',#408,#412,#601,.T.);
#390=EDGE_CURVE('',#487,#487,#16,.T.);
#391=EDGE_CURVE('',#488,#488,#17,.T.);
#392=EDGE_CURVE('',#486,#484,#602,.T.);
#393=EDGE_CURVE('',#489,#490,#603,.T.);
#394=EDGE_CURVE('',#432,#490,#604,.T.);
#395=EDGE_CURVE('',#431,#489,#605,.T.);
#396=EDGE_CURVE('',#490,#468,#606,.T.);
#397=EDGE_CURVE('',#489,#469,#607,.T.);
#398=EDGE_CURVE('',#491,#467,#608,.T.);
#399=EDGE_CURVE('',#435,#491,#609,.T.);
#400=EDGE_CURVE('',#491,#492,#610,.T.);
#401=EDGE_CURVE('',#436,#492,#611,.T.);
#402=EDGE_CURVE('',#492,#493,#612,.T.);
#403=EDGE_CURVE('',#437,#493,#613,.T.);
#404=EDGE_CURVE('',#493,#422,#614,.T.);
#405=EDGE_CURVE('',#420,#416,#615,.T.);
#406=EDGE_CURVE('',#494,#494,#18,.T.);
#407=EDGE_CURVE('',#495,#495,#19,.T.);
#408=VERTEX_POINT('',#1260);
#409=VERTEX_POINT('',#1261);
#410=VERTEX_POINT('',#1263);
#411=VERTEX_POINT('',#1265);
#412=VERTEX_POINT('',#1269);
#413=VERTEX_POINT('',#1270);
#414=VERTEX_POINT('',#1272);
#415=VERTEX_POINT('',#1274);
#416=VERTEX_POINT('',#1278);
#417=VERTEX_POINT('',#1279);
#418=VERTEX_POINT('',#1281);
#419=VERTEX_POINT('',#1283);
#420=VERTEX_POINT('',#1287);
#421=VERTEX_POINT('',#1288);
#422=VERTEX_POINT('',#1290);
#423=VERTEX_POINT('',#1292);
#424=VERTEX_POINT('',#1296);
#425=VERTEX_POINT('',#1297);
#426=VERTEX_POINT('',#1299);
#427=VERTEX_POINT('',#1301);
#428=VERTEX_POINT('',#1303);
#429=VERTEX_POINT('',#1305);
#430=VERTEX_POINT('',#1307);
#431=VERTEX_POINT('',#1309);
#432=VERTEX_POINT('',#1311);
#433=VERTEX_POINT('',#1313);
#434=VERTEX_POINT('',#1315);
#435=VERTEX_POINT('',#1317);
#436=VERTEX_POINT('',#1319);
#437=VERTEX_POINT('',#1321);
#438=VERTEX_POINT('',#1323);
#439=VERTEX_POINT('',#1325);
#440=VERTEX_POINT('',#1327);
#441=VERTEX_POINT('',#1329);
#442=VERTEX_POINT('',#1331);
#443=VERTEX_POINT('',#1333);
#444=VERTEX_POINT('',#1335);
#445=VERTEX_POINT('',#1337);
#446=VERTEX_POINT('',#1339);
#447=VERTEX_POINT('',#1341);
#448=VERTEX_POINT('',#1345);
#449=VERTEX_POINT('',#1346);
#450=VERTEX_POINT('',#1348);
#451=VERTEX_POINT('',#1350);
#452=VERTEX_POINT('',#1354);
#453=VERTEX_POINT('',#1356);
#454=VERTEX_POINT('',#1358);
#455=VERTEX_POINT('',#1361);
#456=VERTEX_POINT('',#1364);
#457=VERTEX_POINT('',#1366);
#458=VERTEX_POINT('',#1370);
#459=VERTEX_POINT('',#1372);
#460=VERTEX_POINT('',#1377);
#461=VERTEX_POINT('',#1379);
#462=VERTEX_POINT('',#1384);
#463=VERTEX_POINT('',#1386);
#464=VERTEX_POINT('',#1390);
#465=VERTEX_POINT('',#1392);
#466=VERTEX_POINT('',#1394);
#467=VERTEX_POINT('',#1397);
#468=VERTEX_POINT('',#1400);
#469=VERTEX_POINT('',#1402);
#470=VERTEX_POINT('',#1406);
#471=VERTEX_POINT('',#1408);
#472=VERTEX_POINT('',#1418);
#473=VERTEX_POINT('',#1419);
#474=VERTEX_POINT('',#1424);
#475=VERTEX_POINT('',#1430);
#476=VERTEX_POINT('',#1432);
#477=VERTEX_POINT('',#1438);
#478=VERTEX_POINT('',#1442);
#479=VERTEX_POINT('',#1449);
#480=VERTEX_POINT('',#1453);
#481=VERTEX_POINT('',#1457);
#482=VERTEX_POINT('',#1461);
#483=VERTEX_POINT('',#1463);
#484=VERTEX_POINT('',#1469);
#485=VERTEX_POINT('',#1470);
#486=VERTEX_POINT('',#1477);
#487=VERTEX_POINT('',#1482);
#488=VERTEX_POINT('',#1484);
#489=VERTEX_POINT('',#1491);
#490=VERTEX_POINT('',#1492);
#491=VERTEX_POINT('',#1502);
#492=VERTEX_POINT('',#1506);
#493=VERTEX_POINT('',#1510);
#494=VERTEX_POINT('',#1517);
#495=VERTEX_POINT('',#1519);
#496=LINE('',#1259,#616);
#497=LINE('',#1262,#617);
#498=LINE('',#1264,#618);
#499=LINE('',#1266,#619);
#500=LINE('',#1268,#620);
#501=LINE('',#1271,#621);
#502=LINE('',#1273,#622);
#503=LINE('',#1275,#623);
#504=LINE('',#1277,#624);
#505=LINE('',#1280,#625);
#506=LINE('',#1282,#626);
#507=LINE('',#1284,#627);
#508=LINE('',#1286,#628);
#509=LINE('',#1289,#629);
#510=LINE('',#1291,#630);
#511=LINE('',#1293,#631);
#512=LINE('',#1295,#632);
#513=LINE('',#1298,#633);
#514=LINE('',#1300,#634);
#515=LINE('',#1302,#635);
#516=LINE('',#1304,#636);
#517=LINE('',#1306,#637);
#518=LINE('',#1308,#638);
#519=LINE('',#1310,#639);
#520=LINE('',#1312,#640);
#521=LINE('',#1314,#641);
#522=LINE('',#1316,#642);
#523=LINE('',#1318,#643);
#524=LINE('',#1320,#644);
#525=LINE('',#1322,#645);
#526=LINE('',#1324,#646);
#527=LINE('',#1326,#647);
#528=LINE('',#1328,#648);
#529=LINE('',#1330,#649);
#530=LINE('',#1332,#650);
#531=LINE('',#1334,#651);
#532=LINE('',#1336,#652);
#533=LINE('',#1338,#653);
#534=LINE('',#1340,#654);
#535=LINE('',#1342,#655);
#536=LINE('',#1344,#656);
#537=LINE('',#1347,#657);
#538=LINE('',#1349,#658);
#539=LINE('',#1351,#659);
#540=LINE('',#1353,#660);
#541=LINE('',#1355,#661);
#542=LINE('',#1357,#662);
#543=LINE('',#1359,#663);
#544=LINE('',#1360,#664);
#545=LINE('',#1362,#665);
#546=LINE('',#1363,#666);
#547=LINE('',#1365,#667);
#548=LINE('',#1367,#668);
#549=LINE('',#1369,#669);
#550=LINE('',#1371,#670);
#551=LINE('',#1373,#671);
#552=LINE('',#1375,#672);
#553=LINE('',#1376,#673);
#554=LINE('',#1378,#674);
#555=LINE('',#1380,#675);
#556=LINE('',#1381,#676);
#557=LINE('',#1383,#677);
#558=LINE('',#1385,#678);
#559=LINE('',#1387,#679);
#560=LINE('',#1389,#680);
#561=LINE('',#1391,#681);
#562=LINE('',#1393,#682);
#563=LINE('',#1395,#683);
#564=LINE('',#1396,#684);
#565=LINE('',#1398,#685);
#566=LINE('',#1399,#686);
#567=LINE('',#1401,#687);
#568=LINE('',#1403,#688);
#569=LINE('',#1405,#689);
#570=LINE('',#1407,#690);
#571=LINE('',#1409,#691);
#572=LINE('',#1411,#692);
#573=LINE('',#1412,#693);
#574=LINE('',#1413,#694);
#575=LINE('',#1414,#695);
#576=LINE('',#1417,#696);
#577=LINE('',#1420,#697);
#578=LINE('',#1421,#698);
#579=LINE('',#1423,#699);
#580=LINE('',#1425,#700);
#581=LINE('',#1427,#701);
#582=LINE('',#1434,#702);
#583=LINE('',#1437,#703);
#584=LINE('',#1439,#704);
#585=LINE('',#1441,#705);
#586=LINE('',#1443,#706);
#587=LINE('',#1445,#707);
#588=LINE('',#1448,#708);
#589=LINE('',#1450,#709);
#590=LINE('',#1452,#710);
#591=LINE('',#1454,#711);
#592=LINE('',#1456,#712);
#593=LINE('',#1458,#713);
#594=LINE('',#1465,#714);
#595=LINE('',#1468,#715);
#596=LINE('',#1471,#716);
#597=LINE('',#1472,#717);
#598=LINE('',#1474,#718);
#599=LINE('',#1476,#719);
#600=LINE('',#1478,#720);
#601=LINE('',#1479,#721);
#602=LINE('',#1486,#722);
#603=LINE('',#1490,#723);
#604=LINE('',#1493,#724);
#605=LINE('',#1494,#725);
#606=LINE('',#1496,#726);
#607=LINE('',#1498,#727);
#608=LINE('',#1501,#728);
#609=LINE('',#1503,#729);
#610=LINE('',#1505,#730);
#611=LINE('',#1507,#731);
#612=LINE('',#1509,#732);
#613=LINE('',#1511,#733);
#614=LINE('',#1513,#734);
#615=LINE('',#1514,#735);
#616=VECTOR('',#1023,1.);
#617=VECTOR('',#1024,1.);
#618=VECTOR('',#1025,1.);
#619=VECTOR('',#1026,1.);
#620=VECTOR('',#1029,1.);
#621=VECTOR('',#1030,1.);
#622=VECTOR('',#1031,1.);
#623=VECTOR('',#1032,1.);
#624=VECTOR('',#1035,1.);
#625=VECTOR('',#1036,1.);
#626=VECTOR('',#1037,1.);
#627=VECTOR('',#1038,1.);
#628=VECTOR('',#1041,1.);
#629=VECTOR('',#1042,1.);
#630=VECTOR('',#1043,1.);
#631=VECTOR('',#1044,1.);
#632=VECTOR('',#1047,1.);
#633=VECTOR('',#1048,1.);
#634=VECTOR('',#1049,1.);
#635=VECTOR('',#1050,1.);
#636=VECTOR('',#1051,1.);
#637=VECTOR('',#1052,1.);
#638=VECTOR('',#1053,1.);
#639=VECTOR('',#1054,1.);
#640=VECTOR('',#1055,1.);
#641=VECTOR('',#1056,1.);
#642=VECTOR('',#1057,1.);
#643=VECTOR('',#1058,1.);
#644=VECTOR('',#1059,1.);
#645=VECTOR('',#1060,1.);
#646=VECTOR('',#1061,1.);
#647=VECTOR('',#1062,1.);
#648=VECTOR('',#1063,1.);
#649=VECTOR('',#1064,1.);
#650=VECTOR('',#1065,1.);
#651=VECTOR('',#1066,1.);
#652=VECTOR('',#1067,1.);
#653=VECTOR('',#1068,1.);
#654=VECTOR('',#1069,1.);
#655=VECTOR('',#1070,1.);
#656=VECTOR('',#1073,1.);
#657=VECTOR('',#1074,1.);
#658=VECTOR('',#1075,1.);
#659=VECTOR('',#1076,1.);
#660=VECTOR('',#1079,1.);
#661=VECTOR('',#1080,1.);
#662=VECTOR('',#1081,1.);
#663=VECTOR('',#1082,1.);
#664=VECTOR('',#1083,1.);
#665=VECTOR('',#1084,1.);
#666=VECTOR('',#1085,1.);
#667=VECTOR('',#1086,1.);
#668=VECTOR('',#1087,1.);
#669=VECTOR('',#1090,1.);
#670=VECTOR('',#1091,1.);
#671=VECTOR('',#1092,1.);
#672=VECTOR('',#1095,1.);
#673=VECTOR('',#1096,1.);
#674=VECTOR('',#1097,1.);
#675=VECTOR('',#1098,1.);
#676=VECTOR('',#1099,1.);
#677=VECTOR('',#1102,1.);
#678=VECTOR('',#1103,1.);
#679=VECTOR('',#1104,1.);
#680=VECTOR('',#1107,1.);
#681=VECTOR('',#1108,1.);
#682=VECTOR('',#1109,1.);
#683=VECTOR('',#1110,1.);
#684=VECTOR('',#1111,1.);
#685=VECTOR('',#1112,1.);
#686=VECTOR('',#1113,1.);
#687=VECTOR('',#1114,1.);
#688=VECTOR('',#1115,1.);
#689=VECTOR('',#1118,1.);
#690=VECTOR('',#1119,1.);
#691=VECTOR('',#1120,1.);
#692=VECTOR('',#1123,1.);
#693=VECTOR('',#1124,1.);
#694=VECTOR('',#1125,1.);
#695=VECTOR('',#1126,1.);
#696=VECTOR('',#1131,1.);
#697=VECTOR('',#1132,1.);
#698=VECTOR('',#1133,1.);
#699=VECTOR('',#1136,1.);
#700=VECTOR('',#1137,1.);
#701=VECTOR('',#1140,1.);
#702=VECTOR('',#1149,1.);
#703=VECTOR('',#1154,1.);
#704=VECTOR('',#1155,1.);
#705=VECTOR('',#1158,1.);
#706=VECTOR('',#1159,1.);
#707=VECTOR('',#1162,1.);
#708=VECTOR('',#1167,1.);
#709=VECTOR('',#1168,1.);
#710=VECTOR('',#1171,1.);
#711=VECTOR('',#1172,1.);
#712=VECTOR('',#1175,1.);
#713=VECTOR('',#1176,1.);
#714=VECTOR('',#1185,1.);
#715=VECTOR('',#1190,1.);
#716=VECTOR('',#1191,1.);
#717=VECTOR('',#1192,1.);
#718=VECTOR('',#1195,1.);
#719=VECTOR('',#1198,1.);
#720=VECTOR('',#1199,1.);
#721=VECTOR('',#1200,1.);
#722=VECTOR('',#1209,1.);
#723=VECTOR('',#1216,1.);
#724=VECTOR('',#1217,1.);
#725=VECTOR('',#1218,1.);
#726=VECTOR('',#1221,1.);
#727=VECTOR('',#1224,1.);
#728=VECTOR('',#1229,1.);
#729=VECTOR('',#1230,1.);
#730=VECTOR('',#1233,1.);
#731=VECTOR('',#1234,1.);
#732=VECTOR('',#1237,1.);
#733=VECTOR('',#1238,1.);
#734=VECTOR('',#1241,1.);
#735=VECTOR('',#1242,1.);
#736=EDGE_LOOP('',(#24,#25,#26,#27));
#737=EDGE_LOOP('',(#28,#29,#30,#31));
#738=EDGE_LOOP('',(#32,#33,#34,#35));
#739=EDGE_LOOP('',(#36,#37,#38,#39));
#740=EDGE_LOOP('',(#40,#41,#42,#43,#44,#45,#46,#47,#48,#49,#50,#51,#52,#53,#54,#55,#56,#57,#58,#59,#60,#61,#62,#63));
#741=EDGE_LOOP('',(#64,#65,#66,#67));
#742=EDGE_LOOP('',(#68,#69,#70,#71,#72,#73,#74,#75,#76,#77,#78,#79));
#743=EDGE_LOOP('',(#80,#81,#82,#83));
#744=EDGE_LOOP('',(#84,#85,#86,#87,#88,#89,#90,#91));
#745=EDGE_LOOP('',(#92,#93,#94,#95));
#746=EDGE_LOOP('',(#96,#97,#98,#99,#100,#101,#102,#103,#104,#105,#106,#107));
#747=EDGE_LOOP('',(#108,#109,#110,#111));
#748=EDGE_LOOP('',(#112,#113,#114,#115,#116,#117,#118,#119));
#749=EDGE_LOOP('',(#120,#121,#122,#123,#124,#125,#126,#127));
#750=EDGE_LOOP('',(#128,#129,#130,#131));
#751=EDGE_LOOP('',(#132,#133,#134,#135));
#752=EDGE_LOOP('',(#136,#137,#138,#139));
#753=EDGE_LOOP('',(#140));
#754=EDGE_LOOP('',(#141));
#755=EDGE_LOOP('',(#142));
#756=EDGE_LOOP('',(#143,#144,#145,#146,#147,#148,#149,#150));
#757=EDGE_LOOP('',(#151));
#758=EDGE_LOOP('',(#152,#153,#154,#155));
#759=EDGE_LOOP('',(#156,#157,#158,#159));
#760=EDGE_LOOP('',(#160,#161,#162,#163));
#761=EDGE_LOOP('',(#164,#165,#166,#167));
#762=EDGE_LOOP('',(#168,#169,#170,#171));
#763=EDGE_LOOP('',(#172,#173,#174,#175));
#764=EDGE_LOOP('',(#176,#177,#178,#179));
#765=EDGE_LOOP('',(#180));
#766=EDGE_LOOP('',(#181));
#767=EDGE_LOOP('',(#182,#183,#184,#185,#186,#187,#188,#189));
#768=EDGE_LOOP('',(#190));
#769=EDGE_LOOP('',(#191));
#770=EDGE_LOOP('',(#192,#193,#194,#195));
#771=EDGE_LOOP('',(#196,#197,#198,#199));
#772=EDGE_LOOP('',(#200,#201,#202,#203,#204,#205,#206,#207));
#773=EDGE_LOOP('',(#208));
#774=EDGE_LOOP('',(#209));
#775=EDGE_LOOP('',(#210,#211,#212,#213));
#776=EDGE_LOOP('',(#214));
#777=EDGE_LOOP('',(#215,#216,#217,#218,#219,#220,#221,#222));
#778=EDGE_LOOP('',(#223));
#779=EDGE_LOOP('',(#224,#225,#226,#227));
#780=EDGE_LOOP('',(#228,#229,#230,#231));
#781=EDGE_LOOP('',(#232,#233,#234,#235));
#782=EDGE_LOOP('',(#236,#237,#238,#239));
#783=EDGE_LOOP('',(#240,#241,#242,#243));
#784=EDGE_LOOP('',(#244,#245,#246,#247));
#785=EDGE_LOOP('',(#248,#249,#250,#251));
#786=EDGE_LOOP('',(#252,#253,#254,#255,#256,#257,#258,#259));
#787=EDGE_LOOP('',(#260));
#788=EDGE_LOOP('',(#261));
#789=EDGE_LOOP('',(#262,#263,#264,#265,#266,#267,#268,#269));
#790=EDGE_LOOP('',(#270));
#791=EDGE_LOOP('',(#271));
#792=EDGE_LOOP('',(#272,#273,#274,#275));
#793=EDGE_LOOP('',(#276,#277,#278,#279));
#794=FACE_BOUND('',#736,.T.);
#795=FACE_BOUND('',#737,.T.);
#796=FACE_BOUND('',#738,.T.);
#797=FACE_BOUND('',#739,.T.);
#798=FACE_BOUND('',#740,.T.);
#799=FACE_BOUND('',#741,.T.);
#800=FACE_BOUND('',#742,.T.);
#801=FACE_BOUND('',#743,.T.);
#802=FACE_BOUND('',#744,.T.);
#803=FACE_BOUND('',#745,.T.);
#804=FACE_BOUND('',#746,.T.);
#805=FACE_BOUND('',#747,.T.);
#806=FACE_BOUND('',#748,.T.);
#807=FACE_BOUND('',#749,.T.);
#808=FACE_BOUND('',#750,.T.);
#809=FACE_BOUND('',#751,.T.);
#810=FACE_BOUND('',#752,.T.);
#811=FACE_BOUND('',#753,.T.);
#812=FACE_BOUND('',#754,.T.);
#813=FACE_BOUND('',#755,.T.);
#814=FACE_BOUND('',#756,.T.);
#815=FACE_BOUND('',#757,.T.);
#816=FACE_BOUND('',#758,.T.);
#817=FACE_BOUND('',#759,.T.);
#818=FACE_BOUND('',#760,.T.);
#819=FACE_BOUND('',#761,.T.);
#820=FACE_BOUND('',#762,.T.);
#821=FACE_BOUND('',#763,.T.);
#822=FACE_BOUND('',#764,.T.);
#823=FACE_BOUND('',#765,.T.);
#824=FACE_BOUND('',#766,.T.);
#825=FACE_BOUND('',#767,.T.);
#826=FACE_BOUND('',#768,.T.);
#827=FACE_BOUND('',#769,.T.);
#828=FACE_BOUND('',#770,.T.);
#829=FACE_BOUND('',#771,.T.);
#830=FACE_BOUND('',#772,.T.);
#831=FACE_BOUND('',#773,.T.);
#832=FACE_BOUND('',#774,.T.);
#833=FACE_BOUND('',#775,.T.);
#834=FACE_BOUND('',#776,.T.);
#835=FACE_BOUND('',#777,.T.);
#836=FACE_BOUND('',#778,.T.);
#837=FACE_BOUND('',#779,.T.);
#838=FACE_BOUND('',#780,.T.);
#839=FACE_BOUND('',#781,.T.);
#840=FACE_BOUND('',#782,.T.);
#841=FACE_BOUND('',#783,.T.);
#842=FACE_BOUND('',#784,.T.);
#843=FACE_BOUND('',#785,.T.);
#844=FACE_BOUND('',#786,.T.);
#845=FACE_BOUND('',#787,.T.);
#846=FACE_BOUND('',#788,.T.);
#847=FACE_BOUND('',#789,.T.);
#848=FACE_BOUND('',#790,.T.);
#849=FACE_BOUND('',#791,.T.);
#850=FACE_BOUND('',#792,.T.);
#851=FACE_BOUND('',#793,.T.);
#852=PLANE('',#961);
#853=PLANE('',#962);
#854=PLANE('',#963);
#855=PLANE('',#964);
#856=PLANE('',#965);
#857=PLANE('',#966);
#858=PLANE('',#967);
#859=PLANE('',#968);
#860=PLANE('',#969);
#861=PLANE('',#970);
#862=PLANE('',#971);
#863=PLANE('',#972);
#864=PLANE('',#973);
#865=PLANE('',#974);
#866=PLANE('',#975);
#867=PLANE('',#976);
#868=PLANE('',#977);
#869=PLANE('',#981);
#870=PLANE('',#982);
#871=PLANE('',#983);
#872=PLANE('',#984);
#873=PLANE('',#985);
#874=PLANE('',#986);
#875=PLANE('',#987);
#876=PLANE('',#988);
#877=PLANE('',#989);
#878=PLANE('',#993);
#879=PLANE('',#994);
#880=PLANE('',#995);
#881=PLANE('',#996);
#882=PLANE('',#997);
#883=PLANE('',#1001);
#884=PLANE('',#1002);
#885=PLANE('',#1003);
#886=PLANE('',#1004);
#887=PLANE('',#1005);
#888=PLANE('',#1006);
#889=PLANE('',#1007);
#890=PLANE('',#1008);
#891=PLANE('',#1009);
#892=PLANE('',#1010);
#893=PLANE('',#1011);
#894=PLANE('',#1015);
#895=PLANE('',#1016);
#896=PLANE('',#1017);
#897=PLANE('',#1018);
#898=ADVANCED_FACE('',(#794),#852,.F.);
#899=ADVANCED_FACE('',(#795),#853,.T.);
#900=ADVANCED_FACE('',(#796),#854,.T.);
#901=ADVANCED_FACE('',(#797),#855,.F.);
#902=ADVANCED_FACE('',(#798),#856,.F.);
#903=ADVANCED_FACE('',(#799),#857,.T.);
#904=ADVANCED_FACE('',(#800),#858,.T.);
#905=ADVANCED_FACE('',(#801),#859,.T.);
#906=ADVANCED_FACE('',(#802),#860,.T.);
#907=ADVANCED_FACE('',(#803),#861,.T.);
#908=ADVANCED_FACE('',(#804),#862,.T.);
#909=ADVANCED_FACE('',(#805),#863,.T.);
#910=ADVANCED_FACE('',(#806),#864,.T.);
#911=ADVANCED_FACE('',(#807),#865,.T.);
#912=ADVANCED_FACE('',(#808),#866,.F.);
#913=ADVANCED_FACE('',(#809),#867,.F.);
#914=ADVANCED_FACE('',(#810),#868,.F.);
#915=ADVANCED_FACE('',(#811,#812),#20,.F.);
#916=ADVANCED_FACE('',(#813,#814),#869,.F.);
#917=ADVANCED_FACE('',(#815),#870,.F.);
#918=ADVANCED_FACE('',(#816),#871,.T.);
#919=ADVANCED_FACE('',(#817),#872,.F.);
#920=ADVANCED_FACE('',(#818),#873,.F.);
#921=ADVANCED_FACE('',(#819),#874,.F.);
#922=ADVANCED_FACE('',(#820),#875,.T.);
#923=ADVANCED_FACE('',(#821),#876,.F.);
#924=ADVANCED_FACE('',(#822),#877,.F.);
#925=ADVANCED_FACE('',(#823,#824),#21,.F.);
#926=ADVANCED_FACE('',(#825,#826),#878,.F.);
#927=ADVANCED_FACE('',(#827),#879,.F.);
#928=ADVANCED_FACE('',(#828),#880,.F.);
#929=ADVANCED_FACE('',(#829),#881,.F.);
#930=ADVANCED_FACE('',(#830),#882,.F.);
#931=ADVANCED_FACE('',(#831,#832),#22,.F.);
#932=ADVANCED_FACE('',(#833),#883,.F.);
#933=ADVANCED_FACE('',(#834,#835),#884,.F.);
#934=ADVANCED_FACE('',(#836),#885,.F.);
#935=ADVANCED_FACE('',(#837),#886,.F.);
#936=ADVANCED_FACE('',(#838),#887,.F.);
#937=ADVANCED_FACE('',(#839),#888,.T.);
#938=ADVANCED_FACE('',(#840),#889,.F.);
#939=ADVANCED_FACE('',(#841),#890,.T.);
#940=ADVANCED_FACE('',(#842),#891,.F.);
#941=ADVANCED_FACE('',(#843),#892,.F.);
#942=ADVANCED_FACE('',(#844),#893,.F.);
#943=ADVANCED_FACE('',(#845,#846),#23,.F.);
#944=ADVANCED_FACE('',(#847,#848),#894,.F.);
#945=ADVANCED_FACE('',(#849),#895,.F.);
#946=ADVANCED_FACE('',(#850),#896,.F.);
#947=ADVANCED_FACE('',(#851),#897,.F.);
#948=CLOSED_SHELL('',(#898,#899,#900,#901,#902,#903,#904,#905,#906,#907,#908,#909,#910,#911,#912,#913,#914,#915,#916,#917,#918,#919,#920,#921,#922,#923,#924,#925,#926,#927,#928,#929,#930,#931,#932,#933,#934,#935,#936,#937,#938,#939,#940,#941,#942,#943,#944,#945,#946,#947));
#949=STYLED_ITEM('',(#950),#957);
#950=PRESENTATION_STYLE_ASSIGNMENT((#951));
#951=SURFACE_STYLE_USAGE(.BOTH.,#952);
#952=SURFACE_SIDE_STYLE('',(#953));
#953=SURFACE_STYLE_FILL_AREA(#954);
#954=FILL_AREA_STYLE('',(#955));
#955=FILL_AREA_STYLE_COLOUR('',#956);
#956=COLOUR_RGB('',0.615686274509804,0.811764705882353,0.929411764705882);
#957=MANIFOLD_SOLID_BREP('top',#948);
#958=SHAPE_DEFINITION_REPRESENTATION(#1530,#959);
#959=SHAPE_REPRESENTATION('top',(#960),#1525);
#960=AXIS2_PLACEMENT_3D('',#1257,#1019,#1020);
#961=AXIS2_PLACEMENT_3D('',#1258,#1021,#1022);
#962=AXIS2_PLACEMENT_3D('',#1267,#1027,#1028);
#963=AXIS2_PLACEMENT_3D('',#1276,#1033,#1034);
#964=AXIS2_PLACEMENT_3D('',#1285,#1039,#1040);
#965=AXIS2_PLACEMENT_3D('',#1294,#1045,#1046);
#966=AXIS2_PLACEMENT_3D('',#1343,#1071,#1072);
#967=AXIS2_PLACEMENT_3D('',#1352,#1077,#1078);
#968=AXIS2_PLACEMENT_3D('',#1368,#1088,#1089);
#969=AXIS2_PLACEMENT_3D('',#1374,#1093,#1094);
#970=AXIS2_PLACEMENT_3D('',#1382,#1100,#1101);
#971=AXIS2_PLACEMENT_3D('',#1388,#1105,#1106);
#972=AXIS2_PLACEMENT_3D('',#1404,#1116,#1117);
#973=AXIS2_PLACEMENT_3D('',#1410,#1121,#1122);
#974=AXIS2_PLACEMENT_3D('',#1415,#1127,#1128);
#975=AXIS2_PLACEMENT_3D('',#1416,#1129,#1130);
#976=AXIS2_PLACEMENT_3D('',#1422,#1134,#1135);
#977=AXIS2_PLACEMENT_3D('',#1426,#1138,#1139);
#978=AXIS2_PLACEMENT_3D('',#1428,#1141,#1142);
#979=AXIS2_PLACEMENT_3D('',#1429,#1143,#1144);
#980=AXIS2_PLACEMENT_3D('',#1431,#1145,#1146);
#981=AXIS2_PLACEMENT_3D('',#1433,#1147,#1148);
#982=AXIS2_PLACEMENT_3D('',#1435,#1150,#1151);
#983=AXIS2_PLACEMENT_3D('',#1436,#1152,#1153);
#984=AXIS2_PLACEMENT_3D('',#1440,#1156,#1157);
#985=AXIS2_PLACEMENT_3D('',#1444,#1160,#1161);
#986=AXIS2_PLACEMENT_3D('',#1446,#1163,#1164);
#987=AXIS2_PLACEMENT_3D('',#1447,#1165,#1166);
#988=AXIS2_PLACEMENT_3D('',#1451,#1169,#1170);
#989=AXIS2_PLACEMENT_3D('',#1455,#1173,#1174);
#990=AXIS2_PLACEMENT_3D('',#1459,#1177,#1178);
#991=AXIS2_PLACEMENT_3D('',#1460,#1179,#1180);
#992=AXIS2_PLACEMENT_3D('',#1462,#1181,#1182);
#993=AXIS2_PLACEMENT_3D('',#1464,#1183,#1184);
#994=AXIS2_PLACEMENT_3D('',#1466,#1186,#1187);
#995=AXIS2_PLACEMENT_3D('',#1467,#1188,#1189);
#996=AXIS2_PLACEMENT_3D('',#1473,#1193,#1194);
#997=AXIS2_PLACEMENT_3D('',#1475,#1196,#1197);
#998=AXIS2_PLACEMENT_3D('',#1480,#1201,#1202);
#999=AXIS2_PLACEMENT_3D('',#1481,#1203,#1204);
#1000=AXIS2_PLACEMENT_3D('',#1483,#1205,#1206);
#1001=AXIS2_PLACEMENT_3D('',#1485,#1207,#1208);
#1002=AXIS2_PLACEMENT_3D('',#1487,#1210,#1211);
#1003=AXIS2_PLACEMENT_3D('',#1488,#1212,#1213);
#1004=AXIS2_PLACEMENT_3D('',#1489,#1214,#1215);
#1005=AXIS2_PLACEMENT_3D('',#1495,#1219,#1220);
#1006=AXIS2_PLACEMENT_3D('',#1497,#1222,#1223);
#1007=AXIS2_PLACEMENT_3D('',#1499,#1225,#1226);
#1008=AXIS2_PLACEMENT_3D('',#1500,#1227,#1228);
#1009=AXIS2_PLACEMENT_3D('',#1504,#1231,#1232);
#1010=AXIS2_PLACEMENT_3D('',#1508,#1235,#1236);
#1011=AXIS2_PLACEMENT_3D('',#1512,#1239,#1240);
#1012=AXIS2_PLACEMENT_3D('',#1515,#1243,#1244);
#1013=AXIS2_PLACEMENT_3D('',#1516,#1245,#1246);
#1014=AXIS2_PLACEMENT_3D('',#1518,#1247,#1248);
#1015=AXIS2_PLACEMENT_3D('',#1520,#1249,#1250);
#1016=AXIS2_PLACEMENT_3D('',#1521,#1251,#1252);
#1017=AXIS2_PLACEMENT_3D('',#1522,#1253,#1254);
#1018=AXIS2_PLACEMENT_3D('',#1523,#1255,#1256);
#1019=DIRECTION('',(0.,0.,1.));
#1020=DIRECTION('',(1.,0.,0.));
#1021=DIRECTION('',(0.,1.,0.));
#1022=DIRECTION('',(0.,0.,1.));
#1023=DIRECTION('',(1.,0.,0.));
#1024=DIRECTION('',(0.,0.,-1.));
#1025=DIRECTION('',(1.,0.,0.));
#1026=DIRECTION('',(0.,0.,-1.));
#1027=DIRECTION('',(0.,1.,0.));
#1028=DIRECTION('',(0.,0.,1.));
#1029=DIRECTION('',(0.,0.,-1.));
#1030=DIRECTION('',(1.,0.,0.));
#1031=DIRECTION('',(0.,0.,-1.));
#1032=DIRECTION('',(1.,0.,0.));
#1033=DIRECTION('',(0.,-1.,0.));
#1034=DIRECTION('',(0.,0.,-1.));
#1035=DIRECTION('',(0.,0.,-1.));
#1036=DIRECTION('',(-1.,0.,0.));
#1037=DIRECTION('',(0.,0.,-1.));
#1038=DIRECTION('',(-1.,0.,0.));
#1039=DIRECTION('',(0.,-1.,0.));
#1040=DIRECTION('',(0.,0.,-1.));
#1041=DIRECTION('',(-1.,0.,0.));
#1042=DIRECTION('',(0.,0.,-1.));
#1043=DIRECTION('',(-1.,0.,0.));
#1044=DIRECTION('',(0.,0.,-1.));
#1045=DIRECTION('',(0.,0.,1.));
#1046=DIRECTION('',(1.,0.,0.));
#1047=DIRECTION('',(0.714881595041773,-0.699245525599221,0.));
#1048=DIRECTION('',(-0.00382587186024625,-0.999992681325473,0.));
#1049=DIRECTION('',(-0.716921800259279,-0.697153593057509,0.));
#1050=DIRECTION('',(-1.,0.,0.));
#1051=DIRECTION('',(0.,-1.,0.));
#1052=DIRECTION('',(-1.,0.,0.));
#1053=DIRECTION('',(0.,-1.,0.));
#1054=DIRECTION('',(-1.,0.,0.));
#1055=DIRECTION('',(0.,-1.,0.));
#1056=DIRECTION('',(-1.,0.,0.));
#1057=DIRECTION('',(0.,-1.,0.));
#1058=DIRECTION('',(-1.,0.,0.));
#1059=DIRECTION('',(-0.706442758151009,0.707770181242468,0.));
#1060=DIRECTION('',(3.24620000708187E-16,1.,0.));
#1061=DIRECTION('',(0.713024012502603,0.701139613482713,0.));
#1062=DIRECTION('',(1.,0.,0.));
#1063=DIRECTION('',(0.,1.,0.));
#1064=DIRECTION('',(1.,0.,0.));
#1065=DIRECTION('',(0.,1.,0.));
#1066=DIRECTION('',(1.,0.,0.));
#1067=DIRECTION('',(0.,1.,0.));
#1068=DIRECTION('',(1.,0.,0.));
#1069=DIRECTION('',(0.,1.,0.));
#1070=DIRECTION('',(1.,0.,0.));
#1071=DIRECTION('',(0.699245525599221,0.714881595041773,0.));
#1072=DIRECTION('',(-0.714881595041773,0.699245525599221,0.));
#1073=DIRECTION('',(0.,0.,-1.));
#1074=DIRECTION('',(0.714881595041773,-0.699245525599221,0.));
#1075=DIRECTION('',(0.,0.,-1.));
#1076=DIRECTION('',(0.714881595041773,-0.699245525599221,0.));
#1077=DIRECTION('',(0.,1.,0.));
#1078=DIRECTION('',(0.,0.,1.));
#1079=DIRECTION('',(0.,0.,-1.));
#1080=DIRECTION('',(1.,0.,0.));
#1081=DIRECTION('',(0.,0.,-1.));
#1082=DIRECTION('',(1.,0.,0.));
#1083=DIRECTION('',(1.,0.,0.));
#1084=DIRECTION('',(0.,0.,-1.));
#1085=DIRECTION('',(0.,0.,-1.));
#1086=DIRECTION('',(1.,0.,0.));
#1087=DIRECTION('',(0.,0.,-1.));
#1088=DIRECTION('',(-0.701139613482713,0.713024012502603,0.));
#1089=DIRECTION('',(-0.713024012502603,-0.701139613482713,0.));
#1090=DIRECTION('',(0.713024012502603,0.701139613482713,0.));
#1091=DIRECTION('',(0.,0.,-1.));
#1092=DIRECTION('',(0.713024012502603,0.701139613482713,0.));
#1093=DIRECTION('',(-1.,2.95604093291216E-16,0.));
#1094=DIRECTION('',(-2.95604093291216E-16,-1.,0.));
#1095=DIRECTION('',(0.,1.,0.));
#1096=DIRECTION('',(3.01296852869942E-16,1.,0.));
#1097=DIRECTION('',(0.,0.,-1.));
#1098=DIRECTION('',(2.95604093291216E-16,1.,0.));
#1099=DIRECTION('',(2.95604093291216E-16,1.,0.));
#1100=DIRECTION('',(-0.707770181242467,-0.706442758151009,0.));
#1101=DIRECTION('',(0.706442758151009,-0.707770181242467,0.));
#1102=DIRECTION('',(-0.706442758151009,0.707770181242467,0.));
#1103=DIRECTION('',(0.,0.,-1.));
#1104=DIRECTION('',(-0.706442758151009,0.707770181242467,0.));
#1105=DIRECTION('',(0.,-1.,0.));
#1106=DIRECTION('',(0.,0.,-1.));
#1107=DIRECTION('',(0.,0.,-1.));
#1108=DIRECTION('',(-1.,0.,0.));
#1109=DIRECTION('',(0.,0.,-1.));
#1110=DIRECTION('',(-1.,0.,0.));
#1111=DIRECTION('',(-1.,0.,0.));
#1112=DIRECTION('',(0.,0.,-1.));
#1113=DIRECTION('',(0.,0.,-1.));
#1114=DIRECTION('',(-1.,0.,0.));
#1115=DIRECTION('',(0.,0.,-1.));
#1116=DIRECTION('',(0.697153593057509,-0.716921800259279,0.));
#1117=DIRECTION('',(0.716921800259279,0.697153593057509,0.));
#1118=DIRECTION('',(-0.716921800259279,-0.697153593057509,0.));
#1119=DIRECTION('',(0.,0.,-1.));
#1120=DIRECTION('',(-0.716921800259279,-0.697153593057509,0.));
#1121=DIRECTION('',(0.999992681325473,-0.00382587186024641,0.));
#1122=DIRECTION('',(0.00382587186024641,0.999992681325473,0.));
#1123=DIRECTION('',(-0.00382587186024641,-0.999992681325473,0.));
#1124=DIRECTION('',(-0.00382587186024616,-0.999992681325473,0.));
#1125=DIRECTION('',(-0.00382587186024641,-0.999992681325473,0.));
#1126=DIRECTION('',(-0.00382587186024625,-0.999992681325473,0.));
#1127=DIRECTION('',(0.,0.,1.));
#1128=DIRECTION('',(1.,0.,0.));
#1129=DIRECTION('',(-0.701139613482713,0.713024012502603,0.));
#1130=DIRECTION('',(-0.713024012502603,-0.701139613482713,0.));
#1131=DIRECTION('',(0.713024012502603,0.701139613482713,0.));
#1132=DIRECTION('',(0.,0.,-1.));
#1133=DIRECTION('',(0.,0.,-1.));
#1134=DIRECTION('',(0.,1.,0.));
#1135=DIRECTION('',(0.,0.,1.));
#1136=DIRECTION('',(1.,0.,0.));
#1137=DIRECTION('',(0.,0.,-1.));
#1138=DIRECTION('',(-1.,0.,0.));
#1139=DIRECTION('',(0.,0.,1.));
#1140=DIRECTION('',(0.,1.,0.));
#1141=DIRECTION('',(0.,0.,-1.));
#1142=DIRECTION('',(-1.,0.,0.));
#1143=DIRECTION('',(0.,0.,1.));
#1144=DIRECTION('',(1.,0.,0.));
#1145=DIRECTION('',(0.,0.,1.));
#1146=DIRECTION('',(1.,0.,0.));
#1147=DIRECTION('',(0.,0.,1.));
#1148=DIRECTION('',(1.,0.,0.));
#1149=DIRECTION('',(3.18341314718872E-16,1.,0.));
#1150=DIRECTION('',(0.,0.,1.));
#1151=DIRECTION('',(1.,0.,0.));
#1152=DIRECTION('',(-1.,0.,0.));
#1153=DIRECTION('',(0.,0.,1.));
#1154=DIRECTION('',(0.,1.,0.));
#1155=DIRECTION('',(0.,0.,-1.));
#1156=DIRECTION('',(0.,1.,0.));
#1157=DIRECTION('',(0.,0.,1.));
#1158=DIRECTION('',(1.,0.,0.));
#1159=DIRECTION('',(0.,0.,-1.));
#1160=DIRECTION('',(-1.,0.,0.));
#1161=DIRECTION('',(0.,0.,1.));
#1162=DIRECTION('',(0.,1.,0.));
#1163=DIRECTION('',(0.,0.,1.));
#1164=DIRECTION('',(1.,0.,0.));
#1165=DIRECTION('',(-1.,0.,0.));
#1166=DIRECTION('',(0.,0.,1.));
#1167=DIRECTION('',(0.,1.,0.));
#1168=DIRECTION('',(0.,0.,-1.));
#1169=DIRECTION('',(0.,1.,0.));
#1170=DIRECTION('',(0.,0.,1.));
#1171=DIRECTION('',(1.,0.,0.));
#1172=DIRECTION('',(0.,0.,-1.));
#1173=DIRECTION('',(0.69924552559922,0.714881595041773,0.));
#1174=DIRECTION('',(-0.714881595041773,0.699245525599221,0.));
#1175=DIRECTION('',(0.714881595041773,-0.699245525599221,0.));
#1176=DIRECTION('',(0.,0.,-1.));
#1177=DIRECTION('',(0.,0.,-1.));
#1178=DIRECTION('',(-1.,0.,0.));
#1179=DIRECTION('',(0.,0.,1.));
#1180=DIRECTION('',(1.,0.,0.));
#1181=DIRECTION('',(0.,0.,1.));
#1182=DIRECTION('',(1.,0.,0.));
#1183=DIRECTION('',(0.,0.,1.));
#1184=DIRECTION('',(1.,0.,0.));
#1185=DIRECTION('',(-0.00382587186024634,-0.999992681325473,0.));
#1186=DIRECTION('',(0.,0.,1.));
#1187=DIRECTION('',(1.,0.,0.));
#1188=DIRECTION('',(0.,-1.,0.));
#1189=DIRECTION('',(0.,0.,-1.));
#1190=DIRECTION('',(-1.,0.,0.));
#1191=DIRECTION('',(0.,0.,-1.));
#1192=DIRECTION('',(0.,0.,-1.));
#1193=DIRECTION('',(1.,0.,0.));
#1194=DIRECTION('',(0.,0.,-1.));
#1195=DIRECTION('',(0.,-1.,0.));
#1196=DIRECTION('',(0.999992681325473,-0.00382587186024625,0.));
#1197=DIRECTION('',(0.00382587186024625,0.999992681325473,0.));
#1198=DIRECTION('',(-0.00382587186024625,-0.999992681325473,0.));
#1199=DIRECTION('',(0.,0.,-1.));
#1200=DIRECTION('',(-0.00382587186024641,-0.999992681325473,0.));
#1201=DIRECTION('',(0.,0.,-1.));
#1202=DIRECTION('',(-1.,0.,0.));
#1203=DIRECTION('',(0.,0.,1.));
#1204=DIRECTION('',(1.,0.,0.));
#1205=DIRECTION('',(0.,0.,1.));
#1206=DIRECTION('',(1.,0.,0.));
#1207=DIRECTION('',(0.697153593057509,-0.716921800259279,0.));
#1208=DIRECTION('',(0.716921800259279,0.697153593057509,0.));
#1209=DIRECTION('',(-0.716921800259279,-0.697153593057509,0.));
#1210=DIRECTION('',(0.,0.,1.));
#1211=DIRECTION('',(1.,0.,0.));
#1212=DIRECTION('',(0.,0.,1.));
#1213=DIRECTION('',(1.,0.,0.));
#1214=DIRECTION('',(0.,-1.,0.));
#1215=DIRECTION('',(0.,0.,-1.));
#1216=DIRECTION('',(-1.,0.,0.));
#1217=DIRECTION('',(0.,0.,-1.));
#1218=DIRECTION('',(0.,0.,-1.));
#1219=DIRECTION('',(1.,0.,0.));
#1220=DIRECTION('',(0.,0.,-1.));
#1221=DIRECTION('',(0.,-1.,0.));
#1222=DIRECTION('',(1.,0.,0.));
#1223=DIRECTION('',(0.,0.,-1.));
#1224=DIRECTION('',(0.,-1.,0.));
#1225=DIRECTION('',(0.,0.,1.));
#1226=DIRECTION('',(1.,0.,0.));
#1227=DIRECTION('',(1.,0.,0.));
#1228=DIRECTION('',(0.,0.,-1.));
#1229=DIRECTION('',(0.,-1.,0.));
#1230=DIRECTION('',(0.,0.,-1.));
#1231=DIRECTION('',(0.,-1.,0.));
#1232=DIRECTION('',(0.,0.,-1.));
#1233=DIRECTION('',(-1.,0.,0.));
#1234=DIRECTION('',(0.,0.,-1.));
#1235=DIRECTION('',(-0.707770181242467,-0.706442758151009,0.));
#1236=DIRECTION('',(0.706442758151009,-0.707770181242467,0.));
#1237=DIRECTION('',(-0.706442758151009,0.707770181242468,0.));
#1238=DIRECTION('',(0.,0.,-1.));
#1239=DIRECTION('',(-1.,3.24620000708187E-16,0.));
#1240=DIRECTION('',(-3.24620000708187E-16,-1.,0.));
#1241=DIRECTION('',(3.24620000708187E-16,1.,0.));
#1242=DIRECTION('',(0.,1.,0.));
#1243=DIRECTION('',(0.,0.,-1.));
#1244=DIRECTION('',(-1.,0.,0.));
#1245=DIRECTION('',(0.,0.,1.));
#1246=DIRECTION('',(1.,0.,0.));
#1247=DIRECTION('',(0.,0.,1.));
#1248=DIRECTION('',(1.,0.,0.));
#1249=DIRECTION('',(0.,0.,1.));
#1250=DIRECTION('',(1.,0.,0.));
#1251=DIRECTION('',(0.,0.,1.));
#1252=DIRECTION('',(1.,0.,0.));
#1253=DIRECTION('',(0.,0.,1.));
#1254=DIRECTION('',(1.,0.,0.));
#1255=DIRECTION('',(0.,0.,1.));
#1256=DIRECTION('',(1.,0.,0.));
#1257=CARTESIAN_POINT('',(0.,0.,0.));
#1258=CARTESIAN_POINT('',(0.0265973384911714,0.00416508177295327,0.02));
#1259=CARTESIAN_POINT('',(0.0265973384911714,0.00416508177295327,0.0162));
#1260=CARTESIAN_POINT('',(0.0255973311724433,0.00416508177295327,0.0162));
#1261=CARTESIAN_POINT('',(0.0275973458098994,0.00416508177295327,0.0162));
#1262=CARTESIAN_POINT('',(0.0255973311724433,0.00416508177295327,0.02));
#1263=CARTESIAN_POINT('',(0.0255973311724433,0.00416508177295327,0.013));
#1264=CARTESIAN_POINT('',(0.0265973384911714,0.00416508177295327,0.013));
#1265=CARTESIAN_POINT('',(0.0275973458098994,0.00416508177295327,0.013));
#1266=CARTESIAN_POINT('',(0.0275973458098994,0.00416508177295327,0.02));
#1267=CARTESIAN_POINT('',(0.0265606797276375,-0.00541665451601148,0.02));
#1268=CARTESIAN_POINT('',(0.0255606724089095,-0.00541665451601148,0.02));
#1269=CARTESIAN_POINT('',(0.0255606724089095,-0.00541665451601148,0.0162));
#1270=CARTESIAN_POINT('',(0.0255606724089095,-0.00541665451601148,0.013));
#1271=CARTESIAN_POINT('',(0.0265606797276375,-0.00541665451601148,0.0162));
#1272=CARTESIAN_POINT('',(0.0275606870463657,-0.00541665451601148,0.0162));
#1273=CARTESIAN_POINT('',(0.0275606870463657,-0.00541665451601148,0.02));
#1274=CARTESIAN_POINT('',(0.0275606870463657,-0.00541665451601148,0.013));
#1275=CARTESIAN_POINT('',(0.0265606797276375,-0.00541665451601148,0.013));
#1276=CARTESIAN_POINT('',(-0.0247360615584737,0.00559064885601401,0.02));
#1277=CARTESIAN_POINT('',(-0.0237360615584737,0.00559064885601401,0.02));
#1278=CARTESIAN_POINT('',(-0.0237360615584737,0.00559064885601401,0.015));
#1279=CARTESIAN_POINT('',(-0.0237360615584737,0.00559064885601401,0.013));
#1280=CARTESIAN_POINT('',(-0.0247360615584737,0.00559064885601401,0.015));
#1281=CARTESIAN_POINT('',(-0.0257360615584737,0.00559064885601401,0.015));
#1282=CARTESIAN_POINT('',(-0.0257360615584737,0.00559064885601401,0.02));
#1283=CARTESIAN_POINT('',(-0.0257360615584737,0.00559064885601401,0.013));
#1284=CARTESIAN_POINT('',(-0.0247360615584737,0.00559064885601401,0.013));
#1285=CARTESIAN_POINT('',(-0.0247360615584737,-0.00688922638073564,0.02));
#1286=CARTESIAN_POINT('',(-0.0247360615584737,-0.00688922638073564,0.015));
#1287=CARTESIAN_POINT('',(-0.0237360615584737,-0.00688922638073564,0.015));
#1288=CARTESIAN_POINT('',(-0.0257360615584737,-0.00688922638073564,0.015));
#1289=CARTESIAN_POINT('',(-0.0237360615584737,-0.00688922638073564,0.02));
#1290=CARTESIAN_POINT('',(-0.0237360615584737,-0.00688922638073564,0.013));
#1291=CARTESIAN_POINT('',(-0.0247360615584737,-0.00688922638073564,0.013));
#1292=CARTESIAN_POINT('',(-0.0257360615584737,-0.00688922638073564,0.013));
#1293=CARTESIAN_POINT('',(-0.0257360615584737,-0.00688922638073564,0.02));
#1294=CARTESIAN_POINT('',(0.000855531543493271,-0.000574297271668911,0.02));
#1295=CARTESIAN_POINT('',(0.0240349658631686,0.0199686944688307,0.02));
#1296=CARTESIAN_POINT('',(0.0224181878513848,0.0215501099066711,0.02));
#1297=CARTESIAN_POINT('',(0.0256517438749526,0.0183872790309901,0.02));
#1298=CARTESIAN_POINT('',(0.0255332620642966,-0.0125810721982383,0.02));
#1299=CARTESIAN_POINT('',(0.0255058517196837,-0.0197454898804652,0.02));
#1300=CARTESIAN_POINT('',(0.0238731472748418,-0.0213331745759381,0.02));
#1301=CARTESIAN_POINT('',(0.0222404428299997,-0.0229208592714111,0.02));
#1302=CARTESIAN_POINT('',(0.0217327138645815,-0.0229208592714111,0.02));
#1303=CARTESIAN_POINT('',(0.0212249848991632,-0.0229208592714111,0.02));
#1304=CARTESIAN_POINT('',(0.0212249848991632,-0.023920859271411,0.02));
#1305=CARTESIAN_POINT('',(0.0212249848991632,-0.024920859271411,0.02));
#1306=CARTESIAN_POINT('',(0.0221387624061937,-0.024920859271411,0.02));
#1307=CARTESIAN_POINT('',(0.00634349975734949,-0.024920859271411,0.02));
#1308=CARTESIAN_POINT('',(0.00634349975734949,-0.023920859271411,0.02));
#1309=CARTESIAN_POINT('',(0.00634349975734949,-0.0229208592714111,0.02));
#1310=CARTESIAN_POINT('',(0.00378259387798607,-0.0229208592714111,0.02));
#1311=CARTESIAN_POINT('',(0.00122168799862266,-0.0229208592714111,0.02));
#1312=CARTESIAN_POINT('',(0.00122168799862266,-0.023920859271411,0.02));
#1313=CARTESIAN_POINT('',(0.00122168799862266,-0.024920859271411,0.02));
#1314=CARTESIAN_POINT('',(0.0221387624061937,-0.024920859271411,0.02));
#1315=CARTESIAN_POINT('',(-0.013679962605238,-0.024920859271411,0.02));
#1316=CARTESIAN_POINT('',(-0.013679962605238,-0.023920859271411,0.02));
#1317=CARTESIAN_POINT('',(-0.013679962605238,-0.0229208592714111,0.02));
#1318=CARTESIAN_POINT('',(-0.016041065781264,-0.0229208592714111,0.02));
#1319=CARTESIAN_POINT('',(-0.01840216895729,-0.0229208592714111,0.02));
#1320=CARTESIAN_POINT('',(-0.0210691152578819,-0.0202489017139803,0.02));
#1321=CARTESIAN_POINT('',(-0.0237360615584737,-0.0175769441565495,0.02));
#1322=CARTESIAN_POINT('',(-0.0237360615584737,-0.0122330852686426,0.02));
#1323=CARTESIAN_POINT('',(-0.0237360615584737,0.0164891618404737,0.02));
#1324=CARTESIAN_POINT('',(-0.0211626956925067,0.0190196358735725,0.02));
#1325=CARTESIAN_POINT('',(-0.0185893298265398,0.0215501099066711,0.02));
#1326=CARTESIAN_POINT('',(-0.0161346462158889,0.0215501099066711,0.02));
#1327=CARTESIAN_POINT('',(-0.013679962605238,0.0215501099066711,0.02));
#1328=CARTESIAN_POINT('',(-0.013679962605238,0.0225501099066712,0.02));
#1329=CARTESIAN_POINT('',(-0.013679962605238,0.0235501099066712,0.02));
#1330=CARTESIAN_POINT('',(-0.0165439455650897,0.0235501099066712,0.02));
#1331=CARTESIAN_POINT('',(0.00122168799862266,0.0235501099066712,0.02));
#1332=CARTESIAN_POINT('',(0.00122168799862266,0.0225501099066712,0.02));
#1333=CARTESIAN_POINT('',(0.00122168799862266,0.0215501099066711,0.02));
#1334=CARTESIAN_POINT('',(0.00378259387798607,0.0215501099066711,0.02));
#1335=CARTESIAN_POINT('',(0.00634349975734949,0.0215501099066711,0.02));
#1336=CARTESIAN_POINT('',(0.00634349975734949,0.0225501099066712,0.02));
#1337=CARTESIAN_POINT('',(0.00634349975734949,0.0235501099066712,0.02));
#1338=CARTESIAN_POINT('',(-0.0165439455650897,0.0235501099066712,0.02));
#1339=CARTESIAN_POINT('',(0.0212249848991632,0.0235501099066712,0.02));
#1340=CARTESIAN_POINT('',(0.0212249848991632,0.0225501099066712,0.02));
#1341=CARTESIAN_POINT('',(0.0212249848991632,0.0215501099066711,0.02));
#1342=CARTESIAN_POINT('',(0.021821586375274,0.0215501099066711,0.02));
#1343=CARTESIAN_POINT('',(0.0254443282200488,0.0213878241331555,0.022));
#1344=CARTESIAN_POINT('',(0.0276549656086575,0.0192255383596398,0.022));
#1345=CARTESIAN_POINT('',(0.0276549656086575,0.0192255383596398,0.022));
#1346=CARTESIAN_POINT('',(0.0276549656086575,0.0192255383596398,0.013));
#1347=CARTESIAN_POINT('',(0.0254443282200488,0.0213878241331555,0.013));
#1348=CARTESIAN_POINT('',(0.02323369083144,0.0235501099066712,0.013));
#1349=CARTESIAN_POINT('',(0.02323369083144,0.0235501099066712,0.022));
#1350=CARTESIAN_POINT('',(0.02323369083144,0.0235501099066712,0.022));
#1351=CARTESIAN_POINT('',(0.0254443282200488,0.0213878241331555,0.022));
#1352=CARTESIAN_POINT('',(-0.0165439455650897,0.0235501099066712,0.022));
#1353=CARTESIAN_POINT('',(-0.013679962605238,0.0235501099066712,0.02));
#1354=CARTESIAN_POINT('',(-0.013679962605238,0.0235501099066712,0.013));
#1355=CARTESIAN_POINT('',(-0.0165439455650897,0.0235501099066712,0.013));
#1356=CARTESIAN_POINT('',(-0.0194079285249414,0.0235501099066712,0.013));
#1357=CARTESIAN_POINT('',(-0.0194079285249414,0.0235501099066712,0.022));
#1358=CARTESIAN_POINT('',(-0.0194079285249414,0.0235501099066712,0.022));
#1359=CARTESIAN_POINT('',(-0.0165439455650897,0.0235501099066712,0.022));
#1360=CARTESIAN_POINT('',(0.0222293378653016,0.0235501099066712,0.013));
#1361=CARTESIAN_POINT('',(0.0212249848991632,0.0235501099066712,0.013));
#1362=CARTESIAN_POINT('',(0.0212249848991632,0.0235501099066712,0.02));
#1363=CARTESIAN_POINT('',(0.00634349975734949,0.0235501099066712,0.02));
#1364=CARTESIAN_POINT('',(0.00634349975734949,0.0235501099066712,0.013));
#1365=CARTESIAN_POINT('',(0.00378259387798607,0.0235501099066712,0.013));
#1366=CARTESIAN_POINT('',(0.00122168799862266,0.0235501099066712,0.013));
#1367=CARTESIAN_POINT('',(0.00122168799862266,0.0235501099066712,0.02));
#1368=CARTESIAN_POINT('',(-0.0225719950417076,0.0204387807849315,0.022));
#1369=CARTESIAN_POINT('',(-0.0225719950417076,0.0204387807849315,0.013));
#1370=CARTESIAN_POINT('',(-0.0257360615584737,0.0173274516631919,0.013));
#1371=CARTESIAN_POINT('',(-0.0257360615584737,0.0173274516631919,0.022));
#1372=CARTESIAN_POINT('',(-0.0257360615584737,0.0173274516631919,0.022));
#1373=CARTESIAN_POINT('',(-0.0225719950417076,0.0204387807849315,0.022));
#1374=CARTESIAN_POINT('',(-0.0257360615584737,0.011459050259603,0.022));
#1375=CARTESIAN_POINT('',(-0.0257360615584737,-0.000649288762360811,0.015));
#1376=CARTESIAN_POINT('',(-0.0257360615584737,-0.0126467491011127,0.013));
#1377=CARTESIAN_POINT('',(-0.0257360615584737,-0.0184042718214898,0.013));
#1378=CARTESIAN_POINT('',(-0.0257360615584737,-0.0184042718214898,0.022));
#1379=CARTESIAN_POINT('',(-0.0257360615584737,-0.0184042718214898,0.022));
#1380=CARTESIAN_POINT('',(-0.0257360615584737,0.011459050259603,0.022));
#1381=CARTESIAN_POINT('',(-0.0257360615584737,0.011459050259603,0.013));
#1382=CARTESIAN_POINT('',(-0.0224838787639308,-0.0216625655464505,0.022));
#1383=CARTESIAN_POINT('',(-0.0224838787639308,-0.0216625655464505,0.013));
#1384=CARTESIAN_POINT('',(-0.0192316959693879,-0.024920859271411,0.013));
#1385=CARTESIAN_POINT('',(-0.0192316959693879,-0.024920859271411,0.022));
#1386=CARTESIAN_POINT('',(-0.0192316959693879,-0.024920859271411,0.022));
#1387=CARTESIAN_POINT('',(-0.0224838787639308,-0.0216625655464505,0.022));
#1388=CARTESIAN_POINT('',(0.0221387624061937,-0.024920859271411,0.022));
#1389=CARTESIAN_POINT('',(0.0212249848991632,-0.024920859271411,0.02));
#1390=CARTESIAN_POINT('',(0.0212249848991632,-0.024920859271411,0.013));
#1391=CARTESIAN_POINT('',(0.0221387624061937,-0.024920859271411,0.013));
#1392=CARTESIAN_POINT('',(0.0230525399132241,-0.024920859271411,0.013));
#1393=CARTESIAN_POINT('',(0.0230525399132241,-0.024920859271411,0.022));
#1394=CARTESIAN_POINT('',(0.0230525399132241,-0.024920859271411,0.022));
#1395=CARTESIAN_POINT('',(0.0221387624061937,-0.024920859271411,0.022));
#1396=CARTESIAN_POINT('',(-0.0164558292873129,-0.024920859271411,0.013));
#1397=CARTESIAN_POINT('',(-0.013679962605238,-0.024920859271411,0.013));
#1398=CARTESIAN_POINT('',(-0.013679962605238,-0.024920859271411,0.02));
#1399=CARTESIAN_POINT('',(0.00122168799862266,-0.024920859271411,0.02));
#1400=CARTESIAN_POINT('',(0.00122168799862266,-0.024920859271411,0.013));
#1401=CARTESIAN_POINT('',(0.00378259387798607,-0.024920859271411,0.013));
#1402=CARTESIAN_POINT('',(0.00634349975734949,-0.024920859271411,0.013));
#1403=CARTESIAN_POINT('',(0.00634349975734949,-0.024920859271411,0.02));
#1404=CARTESIAN_POINT('',(0.025277580967723,-0.0227571708952404,0.022));
#1405=CARTESIAN_POINT('',(0.025277580967723,-0.0227571708952404,0.013));
#1406=CARTESIAN_POINT('',(0.027502622022222,-0.0205934825190697,0.013));
#1407=CARTESIAN_POINT('',(0.027502622022222,-0.0205934825190697,0.022));
#1408=CARTESIAN_POINT('',(0.027502622022222,-0.0205934825190697,0.022));
#1409=CARTESIAN_POINT('',(0.025277580967723,-0.0227571708952404,0.022));
#1410=CARTESIAN_POINT('',(0.0275790164281325,-0.000625786371529103,0.022));
#1411=CARTESIAN_POINT('',(0.0275790164281325,-0.000625786371529103,0.0162));
#1412=CARTESIAN_POINT('',(0.0276261557092785,0.0116953100662965,0.013));
#1413=CARTESIAN_POINT('',(0.0275790164281325,-0.000625786371529103,0.022));
#1414=CARTESIAN_POINT('',(0.0275316545342938,-0.0130050685175406,0.013));
#1415=CARTESIAN_POINT('',(0.000855531543493271,-0.000574297271668911,0.022));
#1416=CARTESIAN_POINT('',(-0.0211626956925067,0.0190196358735725,0.02));
#1417=CARTESIAN_POINT('',(-0.0211626956925067,0.0190196358735725,0.013));
#1418=CARTESIAN_POINT('',(-0.0237360615584737,0.0164891618404737,0.013));
#1419=CARTESIAN_POINT('',(-0.0185893298265398,0.0215501099066711,0.013));
#1420=CARTESIAN_POINT('',(-0.0185893298265398,0.0215501099066711,0.02));
#1421=CARTESIAN_POINT('',(-0.0237360615584737,0.0164891618404737,0.02));
#1422=CARTESIAN_POINT('',(-0.0161346462158889,0.0215501099066711,0.02));
#1423=CARTESIAN_POINT('',(-0.0161346462158889,0.0215501099066711,0.013));
#1424=CARTESIAN_POINT('',(-0.013679962605238,0.0215501099066711,0.013));
#1425=CARTESIAN_POINT('',(-0.013679962605238,0.0215501099066711,0.02));
#1426=CARTESIAN_POINT('',(-0.013679962605238,0.0225501099066712,0.02));
#1427=CARTESIAN_POINT('',(-0.013679962605238,0.0225501099066712,0.013));
#1428=CARTESIAN_POINT('',(-0.0218267999589443,0.0197286102920771,0.02));
#1429=CARTESIAN_POINT('',(-0.0218267999589443,0.0197286102920771,0.02));
#1430=CARTESIAN_POINT('',(-0.0212267999589443,0.0197286102920771,0.02));
#1431=CARTESIAN_POINT('',(-0.0218267999589443,0.0197286102920771,0.013));
#1432=CARTESIAN_POINT('',(-0.0212267999589443,0.0197286102920771,0.013));
#1433=CARTESIAN_POINT('',(0.000855531543493271,-0.000574297271668911,0.013));
#1434=CARTESIAN_POINT('',(-0.0237360615584737,0.0110399053482439,0.013));
#1435=CARTESIAN_POINT('',(0.000855531543493271,-0.000574297271668911,0.02));
#1436=CARTESIAN_POINT('',(0.00122168799862266,0.0225501099066712,0.02));
#1437=CARTESIAN_POINT('',(0.00122168799862266,0.0225501099066712,0.013));
#1438=CARTESIAN_POINT('',(0.00122168799862266,0.0215501099066711,0.013));
#1439=CARTESIAN_POINT('',(0.00122168799862266,0.0215501099066711,0.02));
#1440=CARTESIAN_POINT('',(0.00378259387798607,0.0215501099066711,0.02));
#1441=CARTESIAN_POINT('',(0.00378259387798607,0.0215501099066711,0.013));
#1442=CARTESIAN_POINT('',(0.00634349975734949,0.0215501099066711,0.013));
#1443=CARTESIAN_POINT('',(0.00634349975734949,0.0215501099066711,0.02));
#1444=CARTESIAN_POINT('',(0.00634349975734949,0.0225501099066712,0.02));
#1445=CARTESIAN_POINT('',(0.00634349975734949,0.0225501099066712,0.013));
#1446=CARTESIAN_POINT('',(0.000855531543493271,-0.000574297271668911,0.013));
#1447=CARTESIAN_POINT('',(0.0212249848991632,0.0225501099066712,0.02));
#1448=CARTESIAN_POINT('',(0.0212249848991632,0.0225501099066712,0.013));
#1449=CARTESIAN_POINT('',(0.0212249848991632,0.0215501099066711,0.013));
#1450=CARTESIAN_POINT('',(0.0212249848991632,0.0215501099066711,0.02));
#1451=CARTESIAN_POINT('',(0.021821586375274,0.0215501099066711,0.02));
#1452=CARTESIAN_POINT('',(0.021821586375274,0.0215501099066711,0.013));
#1453=CARTESIAN_POINT('',(0.0224181878513848,0.0215501099066711,0.013));
#1454=CARTESIAN_POINT('',(0.0224181878513848,0.0215501099066711,0.02));
#1455=CARTESIAN_POINT('',(0.0240349658631686,0.0199686944688307,0.02));
#1456=CARTESIAN_POINT('',(0.0240349658631686,0.0199686944688307,0.013));
#1457=CARTESIAN_POINT('',(0.0256517438749526,0.0183872790309901,0.013));
#1458=CARTESIAN_POINT('',(0.0256517438749526,0.0183872790309901,0.02));
#1459=CARTESIAN_POINT('',(0.0247824744692538,0.0206324856755089,0.02));
#1460=CARTESIAN_POINT('',(0.0247824744692538,0.0206324856755089,0.02));
#1461=CARTESIAN_POINT('',(0.0253824744692538,0.0206324856755089,0.02));
#1462=CARTESIAN_POINT('',(0.0247824744692538,0.0206324856755089,0.013));
#1463=CARTESIAN_POINT('',(0.0253824744692538,0.0206324856755089,0.013));
#1464=CARTESIAN_POINT('',(0.000855531543493271,-0.000574297271668911,0.013));
#1465=CARTESIAN_POINT('',(0.0256245375236979,0.0112761804019717,0.013));
#1466=CARTESIAN_POINT('',(0.000855531543493271,-0.000574297271668911,0.02));
#1467=CARTESIAN_POINT('',(0.0217327138645815,-0.0229208592714111,0.02));
#1468=CARTESIAN_POINT('',(0.0217327138645815,-0.0229208592714111,0.013));
#1469=CARTESIAN_POINT('',(0.0222404428299997,-0.0229208592714111,0.013));
#1470=CARTESIAN_POINT('',(0.0212249848991632,-0.0229208592714111,0.013));
#1471=CARTESIAN_POINT('',(0.0212249848991632,-0.0229208592714111,0.02));
#1472=CARTESIAN_POINT('',(0.0222404428299997,-0.0229208592714111,0.02));
#1473=CARTESIAN_POINT('',(0.0212249848991632,-0.023920859271411,0.02));
#1474=CARTESIAN_POINT('',(0.0212249848991632,-0.023920859271411,0.013));
#1475=CARTESIAN_POINT('',(0.0255332620642966,-0.0125810721982383,0.02));
#1476=CARTESIAN_POINT('',(0.0255332620642966,-0.0125810721982383,0.013));
#1477=CARTESIAN_POINT('',(0.0255058517196837,-0.0197454898804652,0.013));
#1478=CARTESIAN_POINT('',(0.0255058517196837,-0.0197454898804652,0.02));
#1479=CARTESIAN_POINT('',(0.0255790017906764,-0.000625786371529102,0.0162));
#1480=CARTESIAN_POINT('',(0.0246018806168318,-0.0221048824340868,0.02));
#1481=CARTESIAN_POINT('',(0.0246018806168318,-0.0221048824340868,0.02));
#1482=CARTESIAN_POINT('',(0.0252018806168318,-0.0221048824340868,0.02));
#1483=CARTESIAN_POINT('',(0.0246018806168318,-0.0221048824340868,0.013));
#1484=CARTESIAN_POINT('',(0.0252018806168318,-0.0221048824340868,0.013));
#1485=CARTESIAN_POINT('',(0.0238731472748418,-0.0213331745759381,0.02));
#1486=CARTESIAN_POINT('',(0.0238731472748418,-0.0213331745759381,0.013));
#1487=CARTESIAN_POINT('',(0.000855531543493271,-0.000574297271668911,0.013));
#1488=CARTESIAN_POINT('',(0.000855531543493271,-0.000574297271668911,0.02));
#1489=CARTESIAN_POINT('',(0.00378259387798607,-0.0229208592714111,0.02));
#1490=CARTESIAN_POINT('',(0.00378259387798607,-0.0229208592714111,0.013));
#1491=CARTESIAN_POINT('',(0.00634349975734949,-0.0229208592714111,0.013));
#1492=CARTESIAN_POINT('',(0.00122168799862266,-0.0229208592714111,0.013));
#1493=CARTESIAN_POINT('',(0.00122168799862266,-0.0229208592714111,0.02));
#1494=CARTESIAN_POINT('',(0.00634349975734949,-0.0229208592714111,0.02));
#1495=CARTESIAN_POINT('',(0.00122168799862266,-0.023920859271411,0.02));
#1496=CARTESIAN_POINT('',(0.00122168799862266,-0.023920859271411,0.013));
#1497=CARTESIAN_POINT('',(0.00634349975734949,-0.023920859271411,0.02));
#1498=CARTESIAN_POINT('',(0.00634349975734949,-0.023920859271411,0.013));
#1499=CARTESIAN_POINT('',(0.000855531543493271,-0.000574297271668911,0.013));
#1500=CARTESIAN_POINT('',(-0.013679962605238,-0.023920859271411,0.02));
#1501=CARTESIAN_POINT('',(-0.013679962605238,-0.023920859271411,0.013));
#1502=CARTESIAN_POINT('',(-0.013679962605238,-0.0229208592714111,0.013));
#1503=CARTESIAN_POINT('',(-0.013679962605238,-0.0229208592714111,0.02));
#1504=CARTESIAN_POINT('',(-0.016041065781264,-0.0229208592714111,0.02));
#1505=CARTESIAN_POINT('',(-0.016041065781264,-0.0229208592714111,0.013));
#1506=CARTESIAN_POINT('',(-0.01840216895729,-0.0229208592714111,0.013));
#1507=CARTESIAN_POINT('',(-0.01840216895729,-0.0229208592714111,0.02));
#1508=CARTESIAN_POINT('',(-0.0210691152578819,-0.0202489017139803,0.02));
#1509=CARTESIAN_POINT('',(-0.0210691152578819,-0.0202489017139803,0.013));
#1510=CARTESIAN_POINT('',(-0.0237360615584737,-0.0175769441565495,0.013));
#1511=CARTESIAN_POINT('',(-0.0237360615584737,-0.0175769441565495,0.02));
#1512=CARTESIAN_POINT('',(-0.0237360615584737,-0.0122330852686426,0.02));
#1513=CARTESIAN_POINT('',(-0.0237360615584737,-0.0122330852686426,0.013));
#1514=CARTESIAN_POINT('',(-0.0237360615584737,-0.000649288762360811,0.015));
#1515=CARTESIAN_POINT('',(-0.0218141283839941,-0.0208514668047428,0.02));
#1516=CARTESIAN_POINT('',(-0.0218141283839941,-0.0208514668047428,0.02));
#1517=CARTESIAN_POINT('',(-0.0212141283839941,-0.0208514668047428,0.02));
#1518=CARTESIAN_POINT('',(-0.0218141283839941,-0.0208514668047428,0.013));
#1519=CARTESIAN_POINT('',(-0.0212141283839941,-0.0208514668047428,0.013));
#1520=CARTESIAN_POINT('',(0.000855531543493271,-0.000574297271668911,0.013));
#1521=CARTESIAN_POINT('',(0.000855531543493271,-0.000574297271668911,0.02));
#1522=CARTESIAN_POINT('',(0.000855531543493271,-0.000574297271668911,0.015));
#1523=CARTESIAN_POINT('',(0.000855531543493271,-0.000574297271668911,0.0162));
#1524=MECHANICAL_DESIGN_GEOMETRIC_PRESENTATION_REPRESENTATION('',(#949),#1525);
#1525=(
GEOMETRIC_REPRESENTATION_CONTEXT(3)
GLOBAL_UNCERTAINTY_ASSIGNED_CONTEXT((#1526))
GLOBAL_UNIT_ASSIGNED_CONTEXT((#1529,#1528,#1527))
REPRESENTATION_CONTEXT('top','TOP_LEVEL_ASSEMBLY_PART')
);
#1526=UNCERTAINTY_MEASURE_WITH_UNIT(LENGTH_MEASURE(1.E-08),#1529,'DISTANCE_ACCURACY_VALUE','Maximum Tolerance applied to model');
#1527=(
NAMED_UNIT(*)
SI_UNIT($,.STERADIAN.)
SOLID_ANGLE_UNIT()
);
#1528=(
NAMED_UNIT(*)
PLANE_ANGLE_UNIT()
SI_UNIT($,.RADIAN.)
);
#1529=(
LENGTH_UNIT()
NAMED_UNIT(*)
SI_UNIT($,.METRE.)
);
#1530=PRODUCT_DEFINITION_SHAPE('','',#1531);
#1531=PRODUCT_DEFINITION('','',#1533,#1532);
#1532=PRODUCT_DEFINITION_CONTEXT('',#1539,'design');
#1533=PRODUCT_DEFINITION_FORMATION_WITH_SPECIFIED_SOURCE('','',#1535,.NOT_KNOWN.);
#1534=PRODUCT_RELATED_PRODUCT_CATEGORY('','',(#1535));
#1535=PRODUCT('top','top','top',(#1537));
#1536=PRODUCT_CATEGORY('','');
#1537=PRODUCT_CONTEXT('',#1539,'mechanical');
#1538=APPLICATION_PROTOCOL_DEFINITION('international standard','ap242_managed_model_based_3d_engineering',2020,#1539);
#1539=APPLICATION_CONTEXT('managed model based 3d engineering');
ENDSEC;
END-ISO-10303-21;
